Model Small Std One_CONVERTED.ufo
<glyph name="eight" format="2">
  <advance width="563"/>
  <unicode hex="0038"/>
  <outline>
    <contour>
      <point x="201" y="-32" type="line" smooth="yes"/>
      <point x="372" y="-32"/>
      <point x="553" y="141"/>
      <point x="553" y="316" type="curve" smooth="yes"/>
      <point x="553" y="384"/>
      <point x="526" y="444"/>
      <point x="500" y="503" type="curve" smooth="yes"/>
      <point x="488" y="529"/>
      <point x="475" y="556"/>
      <point x="467" y="583" type="curve"/>
      <point x="559" y="640"/>
      <point x="630" y="693"/>
      <point x="630" y="757" type="curve" smooth="yes"/>
      <point x="630" y="804"/>
      <point x="597" y="828"/>
      <point x="556" y="828" type="curve" smooth="yes"/>
      <point x="488" y="828"/>
      <point x="432" y="760"/>
      <point x="432" y="671" type="curve" smooth="yes"/>
      <point x="432" y="641"/>
      <point x="438" y="609"/>
      <point x="447" y="582" type="curve"/>
      <point x="422" y="568"/>
      <point x="395" y="551"/>
      <point x="370" y="537" type="curve" smooth="yes"/>
      <point x="203" y="442"/>
      <point x="7" y="330"/>
      <point x="7" y="157" type="curve" smooth="yes"/>
      <point x="7" y="31"/>
      <point x="84" y="-29"/>
      <point x="196" y="-32" type="curve" smooth="yes"/>
    </contour>
    <contour>
      <point x="201" y="-23" type="curve" smooth="yes"/>
      <point x="196" y="-23" type="line" smooth="yes"/>
      <point x="72" y="-18"/>
      <point x="24" y="52"/>
      <point x="24" y="151" type="curve" smooth="yes"/>
      <point x="24" y="321"/>
      <point x="219" y="438"/>
      <point x="386" y="535" type="curve" smooth="yes"/>
      <point x="408" y="548"/>
      <point x="429" y="559"/>
      <point x="450" y="572" type="curve"/>
      <point x="459" y="546"/>
      <point x="471" y="518"/>
      <point x="482" y="493" type="curve" smooth="yes"/>
      <point x="504" y="442"/>
      <point x="536" y="362"/>
      <point x="536" y="306" type="curve" smooth="yes"/>
      <point x="536" y="135"/>
      <point x="359" y="-23"/>
    </contour>
    <contour>
      <point x="616" y="757" type="curve" smooth="yes"/>
      <point x="616" y="696"/>
      <point x="551" y="644"/>
      <point x="464" y="591" type="curve"/>
      <point x="455" y="620"/>
      <point x="448" y="653"/>
      <point x="448" y="683" type="curve" smooth="yes"/>
      <point x="448" y="766"/>
      <point x="495" y="820"/>
      <point x="557" y="820" type="curve" smooth="yes"/>
      <point x="596" y="820"/>
      <point x="616" y="789"/>
    </contour>
  </outline>
</glyph>
<glyph name="greater" format="2">
  <advance width="486"/>
  <unicode hex="003E"/>
  <outline>
    <contour>
      <point x="153" y="112" type="line"/>
      <point x="348" y="274" type="line"/>
      <point x="152" y="438" type="line"/>
      <point x="150" y="429" type="line"/>
      <point x="206" y="379"/>
      <point x="265" y="324"/>
      <point x="321" y="274" type="curve"/>
      <point x="150" y="119" type="line"/>
    </contour>
  </outline>
</glyph>
<glyph name="B" format="2">
  <advance width="884"/>
  <unicode hex="0042"/>
  <outline>
    <contour>
      <point x="686" y="456" type="line"/>
      <point x="788" y="474"/>
      <point x="879" y="560"/>
      <point x="904" y="655" type="curve" smooth="yes"/>
      <point x="909" y="675"/>
      <point x="911" y="694"/>
      <point x="911" y="714" type="curve" smooth="yes"/>
      <point x="911" y="803"/>
      <point x="858" y="876"/>
      <point x="772" y="912" type="curve"/>
      <point x="820" y="962"/>
      <point x="865" y="992"/>
      <point x="915" y="992" type="curve"/>
      <point x="914" y="1001" type="line"/>
      <point x="873" y="1001"/>
      <point x="818" y="971"/>
      <point x="766" y="914" type="curve"/>
      <point x="731" y="928"/>
      <point x="688" y="938"/>
      <point x="642" y="938" type="curve" smooth="yes"/>
      <point x="376" y="938"/>
      <point x="139" y="701"/>
      <point x="119" y="501" type="curve" smooth="yes"/>
      <point x="107" y="384"/>
      <point x="170" y="239"/>
      <point x="325" y="235" type="curve" smooth="yes"/>
      <point x="338" y="235" type="line"/>
      <point x="270" y="142"/>
      <point x="174" y="55"/>
      <point x="55" y="25" type="curve"/>
      <point x="21" y="41"/>
      <point x="-18" y="55"/>
      <point x="-65" y="57" type="curve" smooth="yes"/>
      <point x="-94" y="57"/>
      <point x="-108" y="48"/>
      <point x="-108" y="38" type="curve" smooth="yes"/>
      <point x="-108" y="24"/>
      <point x="-81" y="6"/>
      <point x="-37" y="6" type="curve" smooth="yes"/>
      <point x="-5" y="6"/>
      <point x="27" y="8"/>
      <point x="54" y="13" type="curve"/>
      <point x="102" y="-12" type="line"/>
      <point x="127" y="-25" type="line" smooth="yes"/>
      <point x="182" y="-53"/>
      <point x="231" y="-79"/>
      <point x="329" y="-83" type="curve" smooth="yes"/>
      <point x="491" y="-90"/>
      <point x="766" y="28"/>
      <point x="786" y="274" type="curve" smooth="yes"/>
      <point x="795" y="383"/>
      <point x="725" y="432"/>
      <point x="683" y="451" type="curve"/>
    </contour>
    <contour>
      <point x="766" y="284" type="curve" smooth="yes"/>
      <point x="741" y="55"/>
      <point x="481" y="-80"/>
      <point x="329" y="-75" type="curve" smooth="yes"/>
      <point x="228" y="-71"/>
      <point x="164" y="-35"/>
      <point x="105" y="-2" type="curve" smooth="yes"/>
      <point x="72" y="16" type="line"/>
      <point x="210" y="45"/>
      <point x="301" y="135"/>
      <point x="371" y="239" type="curve"/>
      <point x="488" y="259"/>
      <point x="590" y="359"/>
      <point x="604" y="478" type="curve" smooth="yes"/>
      <point x="610" y="532"/>
      <point x="595" y="575"/>
      <point x="568" y="603" type="curve"/>
      <point x="631" y="716"/>
      <point x="700" y="829"/>
      <point x="766" y="904" type="curve"/>
      <point x="848" y="868"/>
      <point x="890" y="794"/>
      <point x="890" y="716" type="curve" smooth="yes"/>
      <point x="890" y="699"/>
      <point x="888" y="682"/>
      <point x="884" y="665" type="curve" smooth="yes"/>
      <point x="856" y="562"/>
      <point x="763" y="462"/>
      <point x="650" y="462" type="curve" smooth="yes"/>
      <point x="644" y="462"/>
      <point x="641" y="456"/>
      <point x="650" y="453" type="curve"/>
      <point x="652" y="451"/>
      <point x="664" y="448"/>
      <point x="664" y="448" type="curve"/>
      <point x="698" y="438"/>
      <point x="773" y="396"/>
    </contour>
    <contour>
      <point x="306" y="439" type="line"/>
      <point x="291" y="459"/>
      <point x="289" y="480"/>
      <point x="292" y="500" type="curve" smooth="yes"/>
      <point x="301" y="571"/>
      <point x="379" y="636"/>
      <point x="463" y="636" type="curve" smooth="yes"/>
      <point x="496" y="636"/>
      <point x="528" y="624"/>
      <point x="551" y="605" type="curve"/>
      <point x="501" y="518"/>
      <point x="454" y="431"/>
      <point x="415" y="357" type="curve" smooth="yes"/>
      <point x="396" y="320"/>
      <point x="371" y="280"/>
      <point x="345" y="244" type="curve"/>
      <point x="341" y="243"/>
      <point x="330" y="243"/>
      <point x="326" y="243" type="curve"/>
      <point x="185" y="253"/>
      <point x="126" y="375"/>
      <point x="135" y="477" type="curve" smooth="yes"/>
      <point x="153" y="683"/>
      <point x="382" y="927"/>
      <point x="650" y="927" type="curve" smooth="yes"/>
      <point x="691" y="927"/>
      <point x="728" y="920"/>
      <point x="759" y="907" type="curve"/>
      <point x="689" y="830"/>
      <point x="620" y="724"/>
      <point x="556" y="615" type="curve"/>
      <point x="531" y="635"/>
      <point x="500" y="645"/>
      <point x="464" y="645" type="curve" smooth="yes"/>
      <point x="375" y="645"/>
      <point x="289" y="574"/>
      <point x="279" y="500" type="curve" smooth="yes"/>
      <point x="275" y="476"/>
      <point x="281" y="449"/>
      <point x="301" y="436" type="curve"/>
    </contour>
    <contour>
      <point x="588" y="479" type="curve" smooth="yes"/>
      <point x="573" y="365"/>
      <point x="483" y="272"/>
      <point x="377" y="249" type="curve"/>
      <point x="400" y="284"/>
      <point x="422" y="323"/>
      <point x="442" y="362" type="curve" smooth="yes"/>
      <point x="477" y="432"/>
      <point x="519" y="512"/>
      <point x="562" y="591" type="curve"/>
      <point x="582" y="565"/>
      <point x="593" y="528"/>
    </contour>
    <contour>
      <point x="-37" y="15" type="curve" smooth="yes"/>
      <point x="-69" y="15"/>
      <point x="-84" y="26"/>
      <point x="-84" y="35" type="curve" smooth="yes"/>
      <point x="-84" y="42"/>
      <point x="-76" y="48"/>
      <point x="-58" y="48" type="curve" smooth="yes"/>
      <point x="-22" y="47"/>
      <point x="9" y="37"/>
      <point x="39" y="22" type="curve"/>
      <point x="15" y="18"/>
      <point x="-10" y="15"/>
    </contour>
  </outline>
</glyph>
<glyph name="H" format="2">
  <advance width="946"/>
  <unicode hex="0048"/>
  <outline>
    <contour>
      <point x="337" y="412" type="line"/>
      <point x="407" y="412" type="line"/>
      <point x="352" y="308" type="line" smooth="yes"/>
      <point x="289" y="189"/>
      <point x="154" y="-11"/>
      <point x="-5" y="-11" type="curve" smooth="yes"/>
      <point x="-45" y="-11"/>
      <point x="-116" y="15"/>
      <point x="-116" y="83" type="curve" smooth="yes"/>
      <point x="-116" y="96"/>
      <point x="-113" y="110"/>
      <point x="-107" y="127" type="curve"/>
      <point x="-111" y="129" type="line"/>
      <point x="-120" y="110"/>
      <point x="-124" y="91"/>
      <point x="-124" y="75" type="curve" smooth="yes"/>
      <point x="-124" y="1"/>
      <point x="-47" y="-22"/>
      <point x="-1" y="-22" type="curve" smooth="yes"/>
      <point x="191" y="-22"/>
      <point x="305" y="162"/>
      <point x="385" y="315" type="curve" smooth="yes"/>
      <point x="432" y="412" type="line"/>
      <point x="789" y="412" type="line"/>
      <point x="756" y="343"/>
      <point x="728" y="277"/>
      <point x="702" y="209" type="curve" smooth="yes"/>
      <point x="672" y="131"/>
      <point x="645" y="40"/>
      <point x="645" y="-37" type="curve" smooth="yes"/>
      <point x="645" y="-122"/>
      <point x="682" y="-196"/>
      <point x="766" y="-196" type="curve" smooth="yes"/>
      <point x="852" y="-196"/>
      <point x="875" y="-135"/>
      <point x="875" y="-106" type="curve" smooth="yes"/>
      <point x="875" y="-95"/>
      <point x="869" y="-68"/>
      <point x="846" y="-59" type="curve"/>
      <point x="844" y="-63" type="line"/>
      <point x="860" y="-73"/>
      <point x="864" y="-89"/>
      <point x="864" y="-99" type="curve" smooth="yes"/>
      <point x="864" y="-124"/>
      <point x="844" y="-188"/>
      <point x="766" y="-188" type="curve" smooth="yes"/>
      <point x="697" y="-188"/>
      <point x="664" y="-121"/>
      <point x="664" y="-43" type="curve" smooth="yes"/>
      <point x="664" y="26"/>
      <point x="690" y="117"/>
      <point x="720" y="194" type="curve" smooth="yes"/>
      <point x="749" y="265"/>
      <point x="780" y="340"/>
      <point x="814" y="412" type="curve"/>
      <point x="887" y="412" type="line"/>
      <point x="887" y="420" type="line"/>
      <point x="817" y="420" type="line"/>
      <point x="955" y="708"/>
      <point x="1132" y="965"/>
      <point x="1312" y="965" type="curve" smooth="yes"/>
      <point x="1351" y="965"/>
      <point x="1388" y="937"/>
      <point x="1396" y="894" type="curve"/>
      <point x="1400" y="893" type="line"/>
      <point x="1402" y="899"/>
      <point x="1403" y="905"/>
      <point x="1403" y="911" type="curve" smooth="yes"/>
      <point x="1403" y="948"/>
      <point x="1356" y="973"/>
      <point x="1314" y="973" type="curve" smooth="yes"/>
      <point x="1134" y="973"/>
      <point x="932" y="702"/>
      <point x="793" y="420" type="curve"/>
      <point x="436" y="420" type="line"/>
      <point x="449" y="447"/>
      <point x="463" y="472"/>
      <point x="478" y="500" type="curve"/>
      <point x="478" y="501"/>
      <point x="479" y="503"/>
      <point x="480" y="504" type="curve"/>
      <point x="548" y="629"/>
      <point x="644" y="753"/>
      <point x="705" y="791" type="curve" smooth="yes"/>
      <point x="715" y="797"/>
      <point x="727" y="803"/>
      <point x="738" y="808" type="curve" smooth="yes"/>
      <point x="765" y="821"/>
      <point x="790" y="833"/>
      <point x="790" y="858" type="curve" smooth="yes"/>
      <point x="790" y="935"/>
      <point x="608" y="978"/>
      <point x="469" y="978" type="curve" smooth="yes"/>
      <point x="234" y="978"/>
      <point x="-34" y="836"/>
      <point x="-34" y="595" type="curve" smooth="yes"/>
      <point x="-34" y="496"/>
      <point x="25" y="388"/>
      <point x="152" y="385" type="curve" smooth="yes"/>
      <point x="281" y="385"/>
      <point x="407" y="498"/>
      <point x="407" y="632" type="curve" smooth="yes"/>
      <point x="407" y="717"/>
      <point x="345" y="762"/>
      <point x="276" y="762" type="curve" smooth="yes"/>
      <point x="188" y="762"/>
      <point x="104" y="689"/>
      <point x="104" y="616" type="curve" smooth="yes"/>
      <point x="104" y="590"/>
      <point x="120" y="567"/>
      <point x="132" y="571" type="curve"/>
      <point x="119" y="586"/>
      <point x="118" y="600"/>
      <point x="118" y="613" type="curve" smooth="yes"/>
      <point x="118" y="684"/>
      <point x="190" y="753"/>
      <point x="275" y="753" type="curve" smooth="yes"/>
      <point x="335" y="753"/>
      <point x="389" y="716"/>
      <point x="389" y="633" type="curve" smooth="yes"/>
      <point x="389" y="506"/>
      <point x="274" y="403"/>
      <point x="161" y="393" type="curve"/>
      <point x="36" y="395"/>
      <point x="-19" y="492"/>
      <point x="-19" y="583" type="curve" smooth="yes"/>
      <point x="-19" y="768"/>
      <point x="194" y="957"/>
      <point x="470" y="969" type="curve"/>
      <point x="611" y="967"/>
      <point x="775" y="923"/>
      <point x="775" y="858" type="curve" smooth="yes"/>
      <point x="775" y="837"/>
      <point x="748" y="823"/>
      <point x="724" y="811" type="curve" smooth="yes"/>
      <point x="702" y="800" type="line"/>
      <point x="632" y="758"/>
      <point x="532" y="634"/>
      <point x="459" y="506" type="curve"/>
      <point x="459" y="505"/>
      <point x="457" y="503"/>
      <point x="457" y="501" type="curve"/>
      <point x="457" y="502" type="line"/>
      <point x="412" y="420" type="line"/>
      <point x="341" y="420" type="line"/>
    </contour>
  </outline>
</glyph>
<glyph name="J" format="2">
  <advance width="602"/>
  <unicode hex="004A"/>
  <outline>
    <contour>
      <point x="625" y="938" type="curve" smooth="yes"/>
      <point x="341" y="938"/>
      <point x="108" y="674"/>
      <point x="108" y="466" type="curve" smooth="yes"/>
      <point x="108" y="356"/>
      <point x="166" y="235"/>
      <point x="308" y="235" type="curve"/>
      <point x="298" y="215" type="line" smooth="yes"/>
      <point x="220" y="74"/>
      <point x="52" y="-159"/>
      <point x="-130" y="-148" type="curve" smooth="yes"/>
      <point x="-176" y="-146"/>
      <point x="-244" y="-109"/>
      <point x="-244" y="-40" type="curve" smooth="yes"/>
      <point x="-244" y="-26"/>
      <point x="-241" y="-9"/>
      <point x="-233" y="9" type="curve"/>
      <point x="-237" y="11" type="line"/>
      <point x="-248" y="-11"/>
      <point x="-252" y="-31"/>
      <point x="-252" y="-50" type="curve" smooth="yes"/>
      <point x="-252" y="-122"/>
      <point x="-183" y="-157"/>
      <point x="-130" y="-159" type="curve" smooth="yes"/>
      <point x="100" y="-171"/>
      <point x="234" y="46"/>
      <point x="329" y="226" type="curve"/>
      <point x="328" y="226" type="line"/>
      <point x="331" y="231" type="line"/>
      <point x="331" y="232"/>
      <point x="333" y="235"/>
      <point x="334" y="236" type="curve"/>
      <point x="466" y="250"/>
      <point x="588" y="366"/>
      <point x="588" y="503" type="curve" smooth="yes"/>
      <point x="588" y="554"/>
      <point x="569" y="591"/>
      <point x="538" y="615" type="curve"/>
      <point x="593" y="691"/>
      <point x="657" y="754"/>
      <point x="724" y="772" type="curve"/>
      <point x="761" y="784"/>
      <point x="819" y="810"/>
      <point x="819" y="854" type="curve" smooth="yes"/>
      <point x="819" y="910"/>
      <point x="727" y="938"/>
    </contour>
    <contour>
      <point x="634" y="929" type="curve" smooth="yes"/>
      <point x="732" y="929"/>
      <point x="801" y="901"/>
      <point x="801" y="849" type="curve" smooth="yes"/>
      <point x="801" y="815"/>
      <point x="756" y="793"/>
      <point x="724" y="782" type="curve" smooth="yes"/>
      <point x="655" y="759"/>
      <point x="587" y="697"/>
      <point x="529" y="621" type="curve"/>
      <point x="506" y="636"/>
      <point x="477" y="645"/>
      <point x="447" y="645" type="curve" smooth="yes"/>
      <point x="351" y="645"/>
      <point x="261" y="567"/>
      <point x="261" y="487" type="curve" smooth="yes"/>
      <point x="261" y="468"/>
      <point x="268" y="452"/>
      <point x="281" y="436" type="curve"/>
      <point x="291" y="438" type="line"/>
      <point x="278" y="453"/>
      <point x="274" y="469"/>
      <point x="274" y="484" type="curve" smooth="yes"/>
      <point x="274" y="561"/>
      <point x="355" y="636"/>
      <point x="446" y="636" type="curve" smooth="yes"/>
      <point x="473" y="636"/>
      <point x="501" y="629"/>
      <point x="523" y="613" type="curve"/>
      <point x="450" y="513"/>
      <point x="385" y="386"/>
      <point x="334" y="285" type="curve" smooth="yes"/>
      <point x="329" y="274"/>
      <point x="318" y="254"/>
      <point x="312" y="243" type="curve"/>
      <point x="309" y="243" type="line" smooth="yes"/>
      <point x="171" y="243"/>
      <point x="121" y="353"/>
      <point x="121" y="452" type="curve" smooth="yes"/>
      <point x="121" y="657"/>
      <point x="356" y="929"/>
    </contour>
    <contour>
      <point x="572" y="504" type="curve" smooth="yes"/>
      <point x="572" y="371"/>
      <point x="461" y="259"/>
      <point x="338" y="244" type="curve"/>
      <point x="376" y="322" type="line" smooth="yes"/>
      <point x="419" y="411"/>
      <point x="472" y="519"/>
      <point x="531" y="606" type="curve"/>
      <point x="556" y="584"/>
      <point x="572" y="551"/>
    </contour>
    <contour>
      <point x="530" y="607" type="line"/>
      <point x="530" y="606"/>
      <point x="531" y="606"/>
      <point x="531" y="606" type="curve"/>
      <point x="532" y="606"/>
      <point x="532" y="607"/>
      <point x="533" y="608" type="curve"/>
    </contour>
  </outline>
</glyph>
<glyph name="K" format="2">
  <advance width="840"/>
  <unicode hex="004B"/>
  <outline>
    <contour>
      <point x="470" y="978" type="curve" smooth="yes"/>
      <point x="469" y="978" type="line" smooth="yes"/>
      <point x="234" y="978"/>
      <point x="-34" y="836"/>
      <point x="-34" y="595" type="curve" smooth="yes"/>
      <point x="-34" y="496"/>
      <point x="25" y="388"/>
      <point x="152" y="385" type="curve" smooth="yes"/>
      <point x="281" y="385"/>
      <point x="407" y="498"/>
      <point x="407" y="632" type="curve" smooth="yes"/>
      <point x="407" y="717"/>
      <point x="345" y="762"/>
      <point x="276" y="762" type="curve" smooth="yes"/>
      <point x="188" y="762"/>
      <point x="104" y="689"/>
      <point x="104" y="616" type="curve" smooth="yes"/>
      <point x="104" y="598"/>
      <point x="111" y="579"/>
      <point x="127" y="570" type="curve"/>
      <point x="132" y="571" type="line"/>
      <point x="122" y="587"/>
      <point x="118" y="600"/>
      <point x="118" y="613" type="curve" smooth="yes"/>
      <point x="118" y="684"/>
      <point x="190" y="753"/>
      <point x="275" y="753" type="curve" smooth="yes"/>
      <point x="335" y="753"/>
      <point x="389" y="716"/>
      <point x="389" y="633" type="curve" smooth="yes"/>
      <point x="389" y="506"/>
      <point x="274" y="403"/>
      <point x="161" y="393" type="curve"/>
      <point x="36" y="395"/>
      <point x="-19" y="492"/>
      <point x="-19" y="583" type="curve" smooth="yes"/>
      <point x="-19" y="768"/>
      <point x="194" y="957"/>
      <point x="470" y="969" type="curve"/>
      <point x="611" y="967"/>
      <point x="775" y="923"/>
      <point x="775" y="858" type="curve" smooth="yes"/>
      <point x="775" y="837"/>
      <point x="748" y="823"/>
      <point x="724" y="811" type="curve" smooth="yes"/>
      <point x="702" y="800" type="line"/>
      <point x="632" y="758"/>
      <point x="530" y="629"/>
      <point x="457" y="501" type="curve" smooth="yes"/>
      <point x="416" y="428"/>
      <point x="380" y="361"/>
      <point x="352" y="308" type="curve" smooth="yes"/>
      <point x="287" y="187"/>
      <point x="148" y="-11"/>
      <point x="-5" y="-11" type="curve" smooth="yes"/>
      <point x="-45" y="-11"/>
      <point x="-116" y="15"/>
      <point x="-116" y="83" type="curve" smooth="yes"/>
      <point x="-116" y="96"/>
      <point x="-113" y="110"/>
      <point x="-107" y="127" type="curve"/>
      <point x="-111" y="129" type="line"/>
      <point x="-120" y="110"/>
      <point x="-124" y="91"/>
      <point x="-124" y="75" type="curve" smooth="yes"/>
      <point x="-124" y="1"/>
      <point x="-47" y="-22"/>
      <point x="-1" y="-22" type="curve" smooth="yes"/>
      <point x="191" y="-22"/>
      <point x="308" y="161"/>
      <point x="385" y="315" type="curve" smooth="yes"/>
      <point x="416" y="377"/>
      <point x="446" y="440"/>
      <point x="478" y="500" type="curve" smooth="yes"/>
      <point x="545" y="625"/>
      <point x="644" y="753"/>
      <point x="705" y="791" type="curve" smooth="yes"/>
      <point x="715" y="797"/>
      <point x="727" y="803"/>
      <point x="738" y="808" type="curve" smooth="yes"/>
      <point x="765" y="821"/>
      <point x="790" y="833"/>
      <point x="790" y="858" type="curve" smooth="yes"/>
      <point x="790" y="935"/>
      <point x="609" y="978"/>
    </contour>
    <contour>
      <point x="543" y="365" type="curve"/>
      <point x="602" y="343"/>
      <point x="606" y="226"/>
      <point x="612" y="99" type="curve" smooth="yes"/>
      <point x="618" y="-30"/>
      <point x="624" y="-169"/>
      <point x="686" y="-232" type="curve" smooth="yes"/>
      <point x="701" y="-247"/>
      <point x="727" y="-264"/>
      <point x="755" y="-264" type="curve" smooth="yes"/>
      <point x="774" y="-264"/>
      <point x="796" y="-257"/>
      <point x="819" y="-236" type="curve"/>
      <point x="817" y="-233" type="line"/>
      <point x="799" y="-247"/>
      <point x="777" y="-255"/>
      <point x="756" y="-255" type="curve" smooth="yes"/>
      <point x="733" y="-255"/>
      <point x="708" y="-243"/>
      <point x="691" y="-226" type="curve"/>
      <point x="644" y="-167"/>
      <point x="639" y="-56"/>
      <point x="636" y="57" type="curve" smooth="yes"/>
      <point x="636" y="67"/>
      <point x="635" y="78"/>
      <point x="635" y="88" type="curve" smooth="yes"/>
      <point x="631" y="202"/>
      <point x="628" y="314"/>
      <point x="564" y="363" type="curve"/>
      <point x="560" y="365"/>
      <point x="561" y="369"/>
      <point x="568" y="370" type="curve"/>
      <point x="653" y="395"/>
      <point x="758" y="503"/>
      <point x="857" y="609" type="curve" smooth="yes"/>
      <point x="984" y="742"/>
      <point x="1121" y="887"/>
      <point x="1253" y="887" type="curve" smooth="yes"/>
      <point x="1305" y="887"/>
      <point x="1351" y="858"/>
      <point x="1338" y="816" type="curve"/>
      <point x="1348" y="815" type="line"/>
      <point x="1362" y="859"/>
      <point x="1307" y="909"/>
      <point x="1242" y="909" type="curve" smooth="yes"/>
      <point x="1128" y="909"/>
      <point x="1005" y="778"/>
      <point x="894" y="659" type="curve" smooth="yes"/>
      <point x="880" y="644"/>
      <point x="867" y="629"/>
      <point x="853" y="615" type="curve" smooth="yes"/>
      <point x="745" y="501"/>
      <point x="639" y="388"/>
      <point x="543" y="375" type="curve"/>
      <point x="534" y="375"/>
      <point x="537" y="366"/>
    </contour>
  </outline>
</glyph>
<glyph name="X" format="2">
  <advance width="926"/>
  <unicode hex="0058"/>
  <outline>
    <contour>
      <point x="507" y="374" type="line"/>
      <point x="644" y="374" type="line"/>
      <point x="540" y="146"/>
      <point x="326" y="-76"/>
      <point x="68" y="-76" type="curve" smooth="yes"/>
      <point x="-24" y="-76"/>
      <point x="-81" y="-19"/>
      <point x="-81" y="36" type="curve" smooth="yes"/>
      <point x="-81" y="59"/>
      <point x="-71" y="82"/>
      <point x="-52" y="99" type="curve"/>
      <point x="-54" y="102" type="line"/>
      <point x="-79" y="84"/>
      <point x="-89" y="60"/>
      <point x="-89" y="36" type="curve" smooth="yes"/>
      <point x="-89" y="-23"/>
      <point x="-28" y="-84"/>
      <point x="68" y="-84" type="curve" smooth="yes"/>
      <point x="309" y="-84"/>
      <point x="510" y="92"/>
      <point x="626" y="285" type="curve"/>
      <point x="621" y="263"/>
      <point x="616" y="237"/>
      <point x="614" y="216" type="curve" smooth="yes"/>
      <point x="611" y="191"/>
      <point x="610" y="164"/>
      <point x="610" y="140" type="curve" smooth="yes"/>
      <point x="610" y="-69"/>
      <point x="710" y="-228"/>
      <point x="891" y="-228" type="curve" smooth="yes"/>
      <point x="951" y="-228"/>
      <point x="1025" y="-182"/>
      <point x="1020" y="-138" type="curve"/>
      <point x="1012" y="-138" type="line"/>
      <point x="1017" y="-178"/>
      <point x="947" y="-220"/>
      <point x="891" y="-220" type="curve" smooth="yes"/>
      <point x="733" y="-220"/>
      <point x="631" y="-79"/>
      <point x="631" y="133" type="curve" smooth="yes"/>
      <point x="631" y="153"/>
      <point x="632" y="177"/>
      <point x="634" y="199" type="curve" smooth="yes"/>
      <point x="639" y="251"/>
      <point x="654" y="314"/>
      <point x="676" y="374" type="curve"/>
      <point x="839" y="374" type="line"/>
      <point x="839" y="382" type="line"/>
      <point x="678" y="382" type="line"/>
      <point x="774" y="636"/>
      <point x="1008" y="911"/>
      <point x="1297" y="911" type="curve" smooth="yes"/>
      <point x="1381" y="911"/>
      <point x="1458" y="873"/>
      <point x="1458" y="794" type="curve" smooth="yes"/>
      <point x="1458" y="757"/>
      <point x="1439" y="707"/>
      <point x="1398" y="696" type="curve"/>
      <point x="1399" y="688" type="line"/>
      <point x="1444" y="700"/>
      <point x="1474" y="751"/>
      <point x="1474" y="790" type="curve" smooth="yes"/>
      <point x="1474" y="882"/>
      <point x="1375" y="919"/>
      <point x="1297" y="919" type="curve" smooth="yes"/>
      <point x="1046" y="919"/>
      <point x="843" y="737"/>
      <point x="725" y="531" type="curve"/>
      <point x="731" y="556"/>
      <point x="733" y="576"/>
      <point x="735" y="599" type="curve" smooth="yes"/>
      <point x="744" y="774"/>
      <point x="666" y="950"/>
      <point x="470" y="951" type="curve" smooth="yes"/>
      <point x="298" y="952"/>
      <point x="128" y="828"/>
      <point x="117" y="648" type="curve" smooth="yes"/>
      <point x="112" y="558"/>
      <point x="159" y="458"/>
      <point x="274" y="458" type="curve" smooth="yes"/>
      <point x="390" y="458"/>
      <point x="517" y="561"/>
      <point x="522" y="677" type="curve" smooth="yes"/>
      <point x="525" y="749"/>
      <point x="468" y="799"/>
      <point x="406" y="799" type="curve" smooth="yes"/>
      <point x="327" y="799"/>
      <point x="247" y="733"/>
      <point x="243" y="667" type="curve" smooth="yes"/>
      <point x="242" y="651"/>
      <point x="255" y="625"/>
      <point x="267" y="626" type="curve"/>
      <point x="259" y="640"/>
      <point x="255" y="652"/>
      <point x="256" y="664" type="curve" smooth="yes"/>
      <point x="260" y="728"/>
      <point x="329" y="790"/>
      <point x="405" y="790" type="curve" smooth="yes"/>
      <point x="457" y="790"/>
      <point x="501" y="760"/>
      <point x="501" y="693" type="curve" smooth="yes"/>
      <point x="501" y="571"/>
      <point x="385" y="470"/>
      <point x="282" y="465" type="curve" smooth="yes"/>
      <point x="178" y="460"/>
      <point x="131" y="559"/>
      <point x="134" y="635" type="curve" smooth="yes"/>
      <point x="140" y="771"/>
      <point x="256" y="944"/>
      <point x="470" y="942" type="curve" smooth="yes"/>
      <point x="624" y="941"/>
      <point x="712" y="809"/>
      <point x="712" y="649" type="curve" smooth="yes"/>
      <point x="712" y="638"/>
      <point x="712" y="627"/>
      <point x="711" y="616" type="curve" smooth="yes"/>
      <point x="705" y="545"/>
      <point x="682" y="462"/>
      <point x="647" y="382" type="curve"/>
      <point x="507" y="382" type="line"/>
    </contour>
  </outline>
</glyph>
<glyph name="f" format="2">
  <advance width="215"/>
  <unicode hex="0066"/>
  <outline>
    <contour>
      <point x="16" y="481" type="line"/>
      <point x="89" y="481" type="line"/>
      <point x="28" y="360"/>
      <point x="-27" y="234"/>
      <point x="-74" y="129" type="curve" smooth="yes"/>
      <point x="-166" y="-68"/>
      <point x="-343" y="-452"/>
      <point x="-555" y="-436" type="curve" smooth="yes"/>
      <point x="-599" y="-433"/>
      <point x="-622" y="-402"/>
      <point x="-617" y="-364" type="curve"/>
      <point x="-616" y="-345"/>
      <point x="-605" y="-309"/>
      <point x="-581" y="-306" type="curve"/>
      <point x="-581" y="-302" type="line"/>
      <point x="-584" y="-301" type="line"/>
      <point x="-609" y="-304"/>
      <point x="-630" y="-337"/>
      <point x="-632" y="-357" type="curve" smooth="yes"/>
      <point x="-636" y="-399"/>
      <point x="-609" y="-440"/>
      <point x="-556" y="-444" type="curve" smooth="yes"/>
      <point x="-438" y="-453"/>
      <point x="-336" y="-375"/>
      <point x="-254" y="-262" type="curve" smooth="yes"/>
      <point x="-180" y="-160"/>
      <point x="-118" y="-22"/>
      <point x="-64" y="100" type="curve" smooth="yes"/>
      <point x="-53" y="124" type="line" smooth="yes"/>
      <point x="-8" y="229"/>
      <point x="48" y="361"/>
      <point x="106" y="481" type="curve"/>
      <point x="255" y="481" type="line"/>
      <point x="255" y="489" type="line"/>
      <point x="110" y="489" type="line"/>
      <point x="116" y="503"/>
      <point x="126" y="520"/>
      <point x="133" y="534" type="curve" smooth="yes"/>
      <point x="147" y="562" type="line"/>
      <point x="159" y="560"/>
      <point x="173" y="560"/>
      <point x="186" y="560" type="curve" smooth="yes"/>
      <point x="418" y="560"/>
      <point x="634" y="780"/>
      <point x="634" y="904" type="curve" smooth="yes"/>
      <point x="634" y="953"/>
      <point x="603" y="998"/>
      <point x="550" y="998" type="curve" smooth="yes"/>
      <point x="410" y="998"/>
      <point x="262" y="798"/>
      <point x="137" y="571" type="curve"/>
      <point x="10" y="589"/>
      <point x="-84" y="676"/>
      <point x="-69" y="804" type="curve" smooth="yes"/>
      <point x="-56" y="928"/>
      <point x="40" y="1017"/>
      <point x="144" y="1017" type="curve" smooth="yes"/>
      <point x="212" y="1017"/>
      <point x="267" y="969"/>
      <point x="267" y="910" type="curve" smooth="yes"/>
      <point x="267" y="838"/>
      <point x="210" y="779"/>
      <point x="142" y="779" type="curve" smooth="yes"/>
      <point x="128" y="779"/>
      <point x="91" y="779"/>
      <point x="77" y="804" type="curve"/>
      <point x="67" y="802" type="line"/>
      <point x="87" y="771"/>
      <point x="128" y="771"/>
      <point x="142" y="771" type="curve" smooth="yes"/>
      <point x="217" y="771"/>
      <point x="282" y="836"/>
      <point x="282" y="905" type="curve" smooth="yes"/>
      <point x="282" y="969"/>
      <point x="220" y="1025"/>
      <point x="145" y="1025" type="curve" smooth="yes"/>
      <point x="33" y="1025"/>
      <point x="-71" y="931"/>
      <point x="-87" y="806" type="curve" smooth="yes"/>
      <point x="-99" y="675"/>
      <point x="-1" y="581"/>
      <point x="133" y="563" type="curve"/>
      <point x="121" y="539"/>
      <point x="105" y="512"/>
      <point x="93" y="489" type="curve"/>
      <point x="16" y="489" type="line"/>
    </contour>
    <contour>
      <point x="548" y="990" type="curve" smooth="yes"/>
      <point x="588" y="990"/>
      <point x="618" y="958"/>
      <point x="618" y="903" type="curve" smooth="yes"/>
      <point x="618" y="787"/>
      <point x="418" y="568"/>
      <point x="186" y="568" type="curve" smooth="yes"/>
      <point x="174" y="568"/>
      <point x="163" y="569"/>
      <point x="151" y="570" type="curve"/>
      <point x="271" y="798"/>
      <point x="410" y="990"/>
    </contour>
  </outline>
</glyph>
<glyph name="n" format="2">
  <advance width="561"/>
  <unicode hex="006E"/>
  <outline>
    <contour>
      <point x="339" y="-2" type="curve" smooth="yes"/>
      <point x="409" y="-2"/>
      <point x="505" y="146"/>
      <point x="567" y="282" type="curve"/>
      <point x="559" y="284" type="line"/>
      <point x="500" y="156"/>
      <point x="406" y="7"/>
      <point x="340" y="7" type="curve" smooth="yes"/>
      <point x="315" y="7"/>
      <point x="297" y="40"/>
      <point x="303" y="86" type="curve" smooth="yes"/>
      <point x="311" y="157"/>
      <point x="349" y="216"/>
      <point x="391" y="281" type="curve" smooth="yes"/>
      <point x="402" y="298" type="line" smooth="yes"/>
      <point x="440" y="356"/>
      <point x="479" y="434"/>
      <point x="487" y="490" type="curve" smooth="yes"/>
      <point x="492" y="543"/>
      <point x="467" y="567"/>
      <point x="435" y="567" type="curve" smooth="yes"/>
      <point x="389" y="567"/>
      <point x="326" y="512"/>
      <point x="265" y="436" type="curve"/>
      <point x="273" y="460"/>
      <point x="276" y="480"/>
      <point x="276" y="499" type="curve" smooth="yes"/>
      <point x="276" y="541"/>
      <point x="256" y="567"/>
      <point x="228" y="567" type="curve" smooth="yes"/>
      <point x="157" y="567"/>
      <point x="61" y="420"/>
      <point x="-2" y="284" type="curve"/>
      <point x="6" y="282" type="line"/>
      <point x="66" y="410"/>
      <point x="161" y="558"/>
      <point x="228" y="558" type="curve" smooth="yes"/>
      <point x="251" y="558"/>
      <point x="266" y="537"/>
      <point x="266" y="503" type="curve" smooth="yes"/>
      <point x="266" y="482"/>
      <point x="260" y="455"/>
      <point x="245" y="424" type="curve"/>
      <point x="241" y="414"/>
      <point x="233" y="398"/>
      <point x="228" y="388" type="curve"/>
      <point x="175" y="316"/>
      <point x="118" y="223"/>
      <point x="91" y="165" type="curve" smooth="yes"/>
      <point x="48" y="75"/>
      <point x="12" y="-2"/>
      <point x="40" y="-2" type="curve" smooth="yes"/>
      <point x="57" y="-2"/>
      <point x="96" y="46"/>
      <point x="157" y="187" type="curve" smooth="yes"/>
      <point x="249" y="400" type="line"/>
      <point x="313" y="481"/>
      <point x="390" y="558"/>
      <point x="435" y="558" type="curve" smooth="yes"/>
      <point x="456" y="558"/>
      <point x="483" y="546"/>
      <point x="476" y="493" type="curve" smooth="yes"/>
      <point x="470" y="441"/>
      <point x="441" y="399"/>
      <point x="410" y="353" type="curve" smooth="yes"/>
      <point x="380" y="307" type="line" smooth="yes"/>
      <point x="335" y="236"/>
      <point x="300" y="168"/>
      <point x="291" y="92" type="curve" smooth="yes"/>
      <point x="286" y="42"/>
      <point x="308" y="-2"/>
    </contour>
    <contour>
      <point x="40" y="7" type="curve" smooth="yes"/>
      <point x="28" y="7"/>
      <point x="56" y="74"/>
      <point x="99" y="160" type="curve" smooth="yes"/>
      <point x="121" y="209"/>
      <point x="157" y="271"/>
      <point x="203" y="338" type="curve"/>
      <point x="135" y="194" type="line" smooth="yes"/>
      <point x="57" y="31"/>
      <point x="46" y="7"/>
    </contour>
  </outline>
</glyph>
<glyph name="t" format="2">
  <advance width="186"/>
  <unicode hex="0074"/>
  <outline>
    <contour>
      <point x="5" y="619" type="line"/>
      <point x="151" y="619" type="line"/>
      <point x="-58" y="162" type="line" smooth="yes"/>
      <point x="-74" y="127"/>
      <point x="-81" y="95"/>
      <point x="-81" y="68" type="curve" smooth="yes"/>
      <point x="-81" y="26"/>
      <point x="-63" y="-2"/>
      <point x="-36" y="-2" type="curve" smooth="yes"/>
      <point x="34" y="-2"/>
      <point x="130" y="146"/>
      <point x="192" y="282" type="curve"/>
      <point x="184" y="284" type="line"/>
      <point x="125" y="156"/>
      <point x="30" y="6"/>
      <point x="-35" y="6" type="curve" smooth="yes"/>
      <point x="-56" y="6"/>
      <point x="-68" y="27"/>
      <point x="-68" y="60" type="curve" smooth="yes"/>
      <point x="-68" y="84"/>
      <point x="-61" y="117"/>
      <point x="-45" y="151" type="curve" smooth="yes"/>
      <point x="175" y="619" type="line"/>
      <point x="337" y="619" type="line"/>
      <point x="337" y="627" type="line"/>
      <point x="178" y="627" type="line"/>
      <point x="258" y="796" type="line"/>
      <point x="232" y="796" type="line"/>
      <point x="154" y="627" type="line"/>
      <point x="5" y="627" type="line"/>
    </contour>
  </outline>
</glyph>
<glyph name="x" format="2">
  <advance width="515"/>
  <unicode hex="0078"/>
  <outline>
    <contour>
      <point x="474" y="556" type="curve" smooth="yes"/>
      <point x="519" y="556"/>
      <point x="531" y="522"/>
      <point x="525" y="485" type="curve" smooth="yes"/>
      <point x="520" y="449"/>
      <point x="500" y="407"/>
      <point x="473" y="382" type="curve"/>
      <point x="474" y="375" type="line"/>
      <point x="507" y="405"/>
      <point x="532" y="449"/>
      <point x="537" y="485" type="curve" smooth="yes"/>
      <point x="542" y="526"/>
      <point x="524" y="565"/>
      <point x="474" y="565" type="curve" smooth="yes"/>
      <point x="417" y="565"/>
      <point x="342" y="482"/>
      <point x="283" y="371" type="curve"/>
      <point x="292" y="412"/>
      <point x="295" y="447"/>
      <point x="295" y="490" type="curve" smooth="yes"/>
      <point x="295" y="542"/>
      <point x="266" y="567"/>
      <point x="233" y="567" type="curve" smooth="yes"/>
      <point x="162" y="567"/>
      <point x="61" y="420"/>
      <point x="-2" y="284" type="curve"/>
      <point x="6" y="282" type="line"/>
      <point x="66" y="410"/>
      <point x="166" y="558"/>
      <point x="233" y="558" type="curve" smooth="yes"/>
      <point x="256" y="558"/>
      <point x="278" y="548"/>
      <point x="278" y="503" type="curve" smooth="yes"/>
      <point x="278" y="443"/>
      <point x="261" y="375"/>
      <point x="244" y="313" type="curve"/>
      <point x="241" y="304" type="line"/>
      <point x="238" y="293"/>
      <point x="235" y="283"/>
      <point x="233" y="273" type="curve"/>
      <point x="174" y="128"/>
      <point x="77" y="7"/>
      <point x="21" y="7" type="curve" smooth="yes"/>
      <point x="-27" y="7"/>
      <point x="-40" y="40"/>
      <point x="-34" y="78" type="curve" smooth="yes"/>
      <point x="-29" y="114"/>
      <point x="-9" y="156"/>
      <point x="18" y="181" type="curve"/>
      <point x="17" y="188" type="line"/>
      <point x="-16" y="158"/>
      <point x="-41" y="114"/>
      <point x="-46" y="78" type="curve" smooth="yes"/>
      <point x="-51" y="36"/>
      <point x="-30" y="-2"/>
      <point x="21" y="-2" type="curve" smooth="yes"/>
      <point x="77" y="-2"/>
      <point x="158" y="91"/>
      <point x="217" y="210" type="curve"/>
      <point x="209" y="174"/>
      <point x="205" y="136"/>
      <point x="205" y="100" type="curve" smooth="yes"/>
      <point x="205" y="48"/>
      <point x="231" y="-2"/>
      <point x="281" y="-2" type="curve" smooth="yes"/>
      <point x="351" y="-2"/>
      <point x="459" y="146"/>
      <point x="521" y="282" type="curve"/>
      <point x="513" y="284" type="line"/>
      <point x="454" y="156"/>
      <point x="347" y="6"/>
      <point x="282" y="6" type="curve" smooth="yes"/>
      <point x="243" y="6"/>
      <point x="222" y="38"/>
      <point x="222" y="81" type="curve" smooth="yes"/>
      <point x="222" y="146"/>
      <point x="240" y="209"/>
      <point x="257" y="268" type="curve" smooth="yes"/>
      <point x="269" y="312" type="line"/>
      <point x="269" y="315"/>
      <point x="271" y="318"/>
      <point x="271" y="321" type="curve"/>
      <point x="332" y="450"/>
      <point x="418" y="556"/>
    </contour>
  </outline>
</glyph>
<glyph name="braceleft" format="2">
  <advance width="465"/>
  <unicode hex="007B"/>
  <outline>
    <contour>
      <point x="149" y="-308" type="line"/>
      <point x="119" y="-290"/>
      <point x="100" y="-248"/>
      <point x="100" y="-184" type="curve" smooth="yes"/>
      <point x="100" y="-73"/>
      <point x="151" y="11"/>
      <point x="198" y="87" type="curve" smooth="yes"/>
      <point x="238" y="152"/>
      <point x="275" y="212"/>
      <point x="275" y="282" type="curve" smooth="yes"/>
      <point x="275" y="304"/>
      <point x="267" y="321"/>
      <point x="256" y="335" type="curve"/>
      <point x="311" y="355"/>
      <point x="355" y="394"/>
      <point x="379" y="443" type="curve" smooth="yes"/>
      <point x="392" y="473"/>
      <point x="400" y="506"/>
      <point x="408" y="544" type="curve" smooth="yes"/>
      <point x="420" y="601"/>
      <point x="435" y="666"/>
      <point x="481" y="740" type="curve" smooth="yes"/>
      <point x="523" y="806"/>
      <point x="599" y="858"/>
      <point x="676" y="858" type="curve" smooth="yes"/>
      <point x="687" y="858"/>
      <point x="701" y="856"/>
      <point x="713" y="851" type="curve"/>
      <point x="718" y="861" type="line"/>
      <point x="704" y="866"/>
      <point x="690" y="868"/>
      <point x="676" y="868" type="curve" smooth="yes"/>
      <point x="597" y="868"/>
      <point x="501" y="811"/>
      <point x="459" y="742" type="curve" smooth="yes"/>
      <point x="415" y="672"/>
      <point x="400" y="607"/>
      <point x="387" y="548" type="curve" smooth="yes"/>
      <point x="379" y="512"/>
      <point x="372" y="477"/>
      <point x="356" y="444" type="curve" smooth="yes"/>
      <point x="332" y="395"/>
      <point x="300" y="360"/>
      <point x="250" y="342" type="curve"/>
      <point x="222" y="367"/>
      <point x="179" y="373"/>
      <point x="160" y="373" type="curve" smooth="yes"/>
      <point x="121" y="373"/>
      <point x="95" y="356"/>
      <point x="94" y="341" type="curve"/>
      <point x="94" y="328"/>
      <point x="113" y="317"/>
      <point x="149" y="317" type="curve" smooth="yes"/>
      <point x="185" y="317"/>
      <point x="216" y="321"/>
      <point x="245" y="330" type="curve"/>
      <point x="252" y="319"/>
      <point x="257" y="305"/>
      <point x="257" y="286" type="curve" smooth="yes"/>
      <point x="257" y="224"/>
      <point x="222" y="167"/>
      <point x="183" y="104" type="curve" smooth="yes"/>
      <point x="135" y="27"/>
      <point x="82" y="-58"/>
      <point x="82" y="-175" type="curve" smooth="yes"/>
      <point x="82" y="-244"/>
      <point x="111" y="-299"/>
      <point x="143" y="-318" type="curve"/>
    </contour>
    <contour>
      <point x="150" y="327" type="curve" smooth="yes"/>
      <point x="127" y="327"/>
      <point x="118" y="334"/>
      <point x="118" y="341" type="curve"/>
      <point x="119" y="352"/>
      <point x="134" y="363"/>
      <point x="161" y="363" type="curve" smooth="yes"/>
      <point x="182" y="363"/>
      <point x="219" y="362"/>
      <point x="240" y="338" type="curve"/>
      <point x="215" y="331"/>
      <point x="183" y="327"/>
    </contour>
  </outline>
</glyph>
<glyph name="braceright" format="2">
  <advance width="456"/>
  <unicode hex="007D"/>
  <outline>
    <contour>
      <point x="282" y="859" type="line"/>
      <point x="312" y="841"/>
      <point x="331" y="799"/>
      <point x="331" y="735" type="curve" smooth="yes"/>
      <point x="331" y="642"/>
      <point x="291" y="567"/>
      <point x="255" y="500" type="curve" smooth="yes"/>
      <point x="226" y="445"/>
      <point x="200" y="396"/>
      <point x="200" y="345" type="curve" smooth="yes"/>
      <point x="200" y="321"/>
      <point x="208" y="304"/>
      <point x="220" y="289" type="curve"/>
      <point x="161" y="268"/>
      <point x="113" y="223"/>
      <point x="87" y="174" type="curve" smooth="yes"/>
      <point x="64" y="128"/>
      <point x="52" y="81"/>
      <point x="41" y="36" type="curve" smooth="yes"/>
      <point x="25" y="-26"/>
      <point x="5" y="-100"/>
      <point x="-50" y="-189" type="curve" smooth="yes"/>
      <point x="-92" y="-254"/>
      <point x="-169" y="-307"/>
      <point x="-245" y="-307" type="curve" smooth="yes"/>
      <point x="-256" y="-307"/>
      <point x="-269" y="-305"/>
      <point x="-282" y="-300" type="curve"/>
      <point x="-287" y="-310" type="line"/>
      <point x="-273" y="-315"/>
      <point x="-259" y="-317"/>
      <point x="-245" y="-317" type="curve" smooth="yes"/>
      <point x="-166" y="-317"/>
      <point x="-70" y="-260"/>
      <point x="-28" y="-191" type="curve" smooth="yes"/>
      <point x="28" y="-100"/>
      <point x="45" y="-33"/>
      <point x="62" y="32" type="curve" smooth="yes"/>
      <point x="74" y="77"/>
      <point x="87" y="124"/>
      <point x="110" y="173" type="curve" smooth="yes"/>
      <point x="134" y="221"/>
      <point x="175" y="263"/>
      <point x="225" y="284" type="curve"/>
      <point x="253" y="259"/>
      <point x="296" y="252"/>
      <point x="316" y="252" type="curve" smooth="yes"/>
      <point x="355" y="252"/>
      <point x="381" y="267"/>
      <point x="381" y="286" type="curve" smooth="yes"/>
      <point x="381" y="299"/>
      <point x="361" y="309"/>
      <point x="325" y="309" type="curve" smooth="yes"/>
      <point x="290" y="309"/>
      <point x="260" y="304"/>
      <point x="231" y="294" type="curve"/>
      <point x="223" y="306"/>
      <point x="218" y="321"/>
      <point x="218" y="341" type="curve" smooth="yes"/>
      <point x="218" y="385"/>
      <point x="243" y="431"/>
      <point x="271" y="483" type="curve" smooth="yes"/>
      <point x="307" y="550"/>
      <point x="349" y="627"/>
      <point x="349" y="726" type="curve" smooth="yes"/>
      <point x="349" y="795"/>
      <point x="320" y="850"/>
      <point x="288" y="869" type="curve"/>
    </contour>
    <contour>
      <point x="325" y="300" type="curve" smooth="yes"/>
      <point x="348" y="300"/>
      <point x="357" y="293"/>
      <point x="357" y="286" type="curve"/>
      <point x="356" y="275"/>
      <point x="341" y="264"/>
      <point x="314" y="264" type="curve" smooth="yes"/>
      <point x="294" y="264"/>
      <point x="258" y="265"/>
      <point x="237" y="287" type="curve"/>
      <point x="262" y="295"/>
      <point x="293" y="300"/>
    </contour>
  </outline>
</glyph>
<glyph name="section" format="2">
  <advance width="662"/>
  <unicode hex="00A7"/>
  <outline>
    <contour>
      <point x="501" y="582" type="curve" smooth="yes"/>
      <point x="438" y="582"/>
      <point x="365" y="540"/>
      <point x="365" y="449" type="curve" smooth="yes"/>
      <point x="365" y="405"/>
      <point x="383" y="357"/>
      <point x="400" y="310" type="curve" smooth="yes"/>
      <point x="419" y="260"/>
      <point x="439" y="205"/>
      <point x="439" y="153" type="curve" smooth="yes"/>
      <point x="439" y="15"/>
      <point x="308" y="-76"/>
      <point x="189" y="-76" type="curve" smooth="yes"/>
      <point x="76" y="-76"/>
      <point x="3" y="6"/>
      <point x="3" y="106" type="curve" smooth="yes"/>
      <point x="3" y="219"/>
      <point x="96" y="300"/>
      <point x="184" y="300" type="curve" smooth="yes"/>
      <point x="248" y="300"/>
      <point x="285" y="256"/>
      <point x="285" y="208" type="curve" smooth="yes"/>
      <point x="285" y="157"/>
      <point x="242" y="96"/>
      <point x="181" y="96" type="curve" smooth="yes"/>
      <point x="173" y="96"/>
      <point x="141" y="97"/>
      <point x="129" y="130" type="curve"/>
      <point x="123" y="124" type="line"/>
      <point x="136" y="93"/>
      <point x="165" y="88"/>
      <point x="184" y="88" type="curve" smooth="yes"/>
      <point x="253" y="88"/>
      <point x="296" y="155"/>
      <point x="296" y="209" type="curve" smooth="yes"/>
      <point x="296" y="264"/>
      <point x="250" y="308"/>
      <point x="182" y="308" type="curve" smooth="yes"/>
      <point x="88" y="308"/>
      <point x="-11" y="223"/>
      <point x="-11" y="106" type="curve" smooth="yes"/>
      <point x="-11" y="-1"/>
      <point x="74" y="-84"/>
      <point x="191" y="-84" type="curve" smooth="yes"/>
      <point x="323" y="-84"/>
      <point x="452" y="19"/>
      <point x="452" y="158" type="curve" smooth="yes"/>
      <point x="452" y="177"/>
      <point x="449" y="197"/>
      <point x="445" y="216" type="curve"/>
      <point x="534" y="253"/>
      <point x="606" y="337"/>
      <point x="606" y="438" type="curve" smooth="yes"/>
      <point x="606" y="494"/>
      <point x="589" y="548"/>
      <point x="573" y="600" type="curve" smooth="yes"/>
      <point x="558" y="648"/>
      <point x="543" y="695"/>
      <point x="543" y="738" type="curve" smooth="yes"/>
      <point x="543" y="823"/>
      <point x="614" y="854"/>
      <point x="662" y="854" type="curve" smooth="yes"/>
      <point x="718" y="854"/>
      <point x="748" y="817"/>
      <point x="748" y="781" type="curve" smooth="yes"/>
      <point x="748" y="749"/>
      <point x="726" y="708"/>
      <point x="685" y="708" type="curve" smooth="yes"/>
      <point x="678" y="708"/>
      <point x="670" y="710"/>
      <point x="663" y="714" type="curve"/>
      <point x="662" y="706" type="line"/>
      <point x="671" y="702"/>
      <point x="680" y="701"/>
      <point x="688" y="701" type="curve" smooth="yes"/>
      <point x="729" y="701"/>
      <point x="761" y="742"/>
      <point x="761" y="781" type="curve" smooth="yes"/>
      <point x="761" y="818"/>
      <point x="730" y="862"/>
      <point x="666" y="862" type="curve" smooth="yes"/>
      <point x="603" y="862"/>
      <point x="530" y="820"/>
      <point x="530" y="729" type="curve" smooth="yes"/>
      <point x="530" y="683"/>
      <point x="545" y="636"/>
      <point x="561" y="587" type="curve"/>
      <point x="565" y="577"/>
      <point x="569" y="564"/>
      <point x="572" y="553" type="curve"/>
      <point x="555" y="570"/>
      <point x="529" y="582"/>
    </contour>
    <contour>
      <point x="593" y="433" type="curve" smooth="yes"/>
      <point x="593" y="333"/>
      <point x="525" y="259"/>
      <point x="443" y="224" type="curve"/>
      <point x="436" y="258"/>
      <point x="425" y="287"/>
      <point x="413" y="318" type="curve" smooth="yes"/>
      <point x="396" y="366"/>
      <point x="378" y="415"/>
      <point x="378" y="458" type="curve" smooth="yes"/>
      <point x="378" y="543"/>
      <point x="448" y="574"/>
      <point x="497" y="574" type="curve" smooth="yes"/>
      <point x="536" y="574"/>
      <point x="564" y="556"/>
      <point x="577" y="530" type="curve"/>
      <point x="586" y="498"/>
      <point x="593" y="465"/>
    </contour>
  </outline>
</glyph>
<glyph name="twosuperior" format="2">
  <advance width="538"/>
  <unicode hex="00B2"/>
  <outline>
    <contour>
      <point x="59" y="290" type="curve"/>
      <point x="61" y="290" type="line"/>
      <point x="65" y="289"/>
      <point x="71" y="288"/>
      <point x="79" y="288" type="curve" smooth="yes"/>
      <point x="93" y="288"/>
      <point x="116" y="296"/>
      <point x="138" y="307" type="curve"/>
      <point x="155" y="300" type="line" smooth="yes"/>
      <point x="180" y="289"/>
      <point x="208" y="277"/>
      <point x="251" y="277" type="curve" smooth="yes"/>
      <point x="279" y="277"/>
      <point x="309" y="284"/>
      <point x="330" y="298" type="curve" smooth="yes"/>
      <point x="350" y="311"/>
      <point x="364" y="336"/>
      <point x="363" y="363" type="curve"/>
      <point x="356" y="364" type="line"/>
      <point x="359" y="343"/>
      <point x="341" y="325"/>
      <point x="321" y="312" type="curve" smooth="yes"/>
      <point x="300" y="297"/>
      <point x="272" y="289"/>
      <point x="247" y="289" type="curve" smooth="yes"/>
      <point x="207" y="289"/>
      <point x="181" y="299"/>
      <point x="156" y="309" type="curve"/>
      <point x="149" y="313" type="line"/>
      <point x="261" y="376"/>
      <point x="441" y="537"/>
      <point x="441" y="611" type="curve" smooth="yes"/>
      <point x="441" y="657"/>
      <point x="401" y="686"/>
      <point x="353" y="686" type="curve" smooth="yes"/>
      <point x="292" y="686"/>
      <point x="220" y="632"/>
      <point x="220" y="571" type="curve" smooth="yes"/>
      <point x="220" y="557"/>
      <point x="230" y="533"/>
      <point x="248" y="532" type="curve"/>
      <point x="249" y="536" type="line"/>
      <point x="236" y="540"/>
      <point x="233" y="556"/>
      <point x="233" y="567" type="curve" smooth="yes"/>
      <point x="233" y="624"/>
      <point x="297" y="678"/>
      <point x="353" y="678" type="curve" smooth="yes"/>
      <point x="393" y="678"/>
      <point x="427" y="661"/>
      <point x="427" y="619" type="curve" smooth="yes"/>
      <point x="427" y="550"/>
      <point x="245" y="381"/>
      <point x="136" y="317" type="curve"/>
      <point x="120" y="323"/>
      <point x="104" y="326"/>
      <point x="83" y="326" type="curve" smooth="yes"/>
      <point x="62" y="326"/>
      <point x="48" y="315"/>
      <point x="48" y="306" type="curve" smooth="yes"/>
      <point x="48" y="300"/>
      <point x="52" y="293"/>
    </contour>
    <contour>
      <point x="70" y="298" type="line"/>
      <point x="68" y="301"/>
      <point x="68" y="303"/>
      <point x="68" y="305" type="curve" smooth="yes"/>
      <point x="68" y="310"/>
      <point x="75" y="317"/>
      <point x="89" y="317" type="curve" smooth="yes"/>
      <point x="102" y="317"/>
      <point x="114" y="315"/>
      <point x="126" y="312" type="curve"/>
      <point x="105" y="301"/>
      <point x="90" y="296"/>
      <point x="79" y="296" type="curve" smooth="yes"/>
      <point x="77" y="296"/>
      <point x="74" y="297"/>
      <point x="71" y="298" type="curve"/>
    </contour>
  </outline>
</glyph>
<glyph name="acute" format="2">
  <advance width="257"/>
  <unicode hex="00B4"/>
  <outline>
    <contour>
      <point x="138" y="692" type="line"/>
      <point x="181" y="712"/>
      <point x="229" y="736"/>
      <point x="272" y="757" type="curve"/>
      <point x="281" y="762"/>
      <point x="289" y="768"/>
      <point x="289" y="777" type="curve" smooth="yes"/>
      <point x="289" y="785"/>
      <point x="284" y="790"/>
      <point x="275" y="790" type="curve" smooth="yes"/>
      <point x="266" y="790"/>
      <point x="258" y="786"/>
      <point x="254" y="783" type="curve" smooth="yes"/>
      <point x="135" y="698" type="line"/>
    </contour>
  </outline>
</glyph>
<glyph name="paragraph" format="2">
  <advance width="833"/>
  <unicode hex="00B6"/>
  <outline>
    <contour>
      <point x="15" y="-126" type="line"/>
      <point x="469" y="765" type="line"/>
      <point x="506" y="761"/>
      <point x="539" y="751"/>
      <point x="573" y="734" type="curve"/>
      <point x="477" y="547"/>
      <point x="139" y="-122"/>
      <point x="139" y="-122" type="curve"/>
      <point x="145" y="-125" type="line"/>
      <point x="145" y="-125"/>
      <point x="485" y="541"/>
      <point x="581" y="730" type="curve"/>
      <point x="648" y="694"/>
      <point x="696" y="634"/>
      <point x="696" y="570" type="curve" smooth="yes"/>
      <point x="696" y="560"/>
      <point x="695" y="550"/>
      <point x="693" y="541" type="curve"/>
      <point x="701" y="541" type="line"/>
      <point x="703" y="550"/>
      <point x="704" y="560"/>
      <point x="704" y="570" type="curve" smooth="yes"/>
      <point x="704" y="679"/>
      <point x="575" y="774"/>
      <point x="444" y="774" type="curve" smooth="yes"/>
      <point x="262" y="774"/>
      <point x="116" y="657"/>
      <point x="116" y="489" type="curve" smooth="yes"/>
      <point x="116" y="420"/>
      <point x="141" y="350"/>
      <point x="220" y="296" type="curve"/>
      <point x="6" y="-123" type="line"/>
    </contour>
    <contour>
      <point x="124" y="489" type="curve" smooth="yes"/>
      <point x="124" y="653"/>
      <point x="266" y="766"/>
      <point x="444" y="766" type="curve" smooth="yes"/>
      <point x="449" y="766"/>
      <point x="455" y="767"/>
      <point x="460" y="766" type="curve"/>
      <point x="224" y="303" type="line"/>
      <point x="148" y="354"/>
      <point x="124" y="423"/>
    </contour>
  </outline>
</glyph>
<glyph name="ordmasculine" format="2">
  <advance width="420"/>
  <unicode hex="00BA"/>
  <outline>
    <contour>
      <point x="74" y="373" type="curve" smooth="yes"/>
      <point x="74" y="326"/>
      <point x="93" y="294"/>
      <point x="126" y="293" type="curve" smooth="yes"/>
      <point x="193" y="293"/>
      <point x="329" y="449"/>
      <point x="329" y="601" type="curve" smooth="yes"/>
      <point x="329" y="651"/>
      <point x="310" y="686"/>
      <point x="277" y="686" type="curve" smooth="yes"/>
      <point x="206" y="686"/>
      <point x="74" y="526"/>
    </contour>
    <contour>
      <point x="278" y="678" type="curve" smooth="yes"/>
      <point x="301" y="678"/>
      <point x="311" y="654"/>
      <point x="311" y="617" type="curve" smooth="yes"/>
      <point x="311" y="471"/>
      <point x="187" y="301"/>
      <point x="126" y="301" type="curve"/>
      <point x="102" y="303"/>
      <point x="90" y="326"/>
      <point x="90" y="363" type="curve" smooth="yes"/>
      <point x="90" y="507"/>
      <point x="217" y="678"/>
    </contour>
  </outline>
</glyph>
<glyph name="Aring" format="2">
  <advance width="849"/>
  <unicode hex="00C5"/>
  <outline>
    <contour>
      <point x="-290" y="73" type="line"/>
      <point x="-308" y="44"/>
      <point x="-314" y="20"/>
      <point x="-314" y="-1" type="curve" smooth="yes"/>
      <point x="-314" y="-70"/>
      <point x="-233" y="-90"/>
      <point x="-182" y="-90" type="curve" smooth="yes"/>
      <point x="-111" y="-90"/>
      <point x="-48" y="-72"/>
      <point x="14" y="-48" type="curve"/>
      <point x="47" y="-63"/>
      <point x="85" y="-72"/>
      <point x="127" y="-73" type="curve" smooth="yes"/>
      <point x="261" y="-73"/>
      <point x="393" y="36"/>
      <point x="403" y="170" type="curve" smooth="yes"/>
      <point x="406" y="210"/>
      <point x="397" y="245"/>
      <point x="382" y="270" type="curve"/>
      <point x="411" y="308" type="line" smooth="yes"/>
      <point x="460" y="373"/>
      <point x="505" y="439"/>
      <point x="550" y="506" type="curve"/>
      <point x="630" y="448"/>
      <point x="678" y="361"/>
      <point x="678" y="276" type="curve" smooth="yes"/>
      <point x="678" y="265" type="line"/>
      <point x="559" y="9" type="line" smooth="yes"/>
      <point x="548" y="-15"/>
      <point x="545" y="-33"/>
      <point x="545" y="-47" type="curve" smooth="yes"/>
      <point x="545" y="-69"/>
      <point x="556" y="-79"/>
      <point x="567" y="-79" type="curve" smooth="yes"/>
      <point x="586" y="-79"/>
      <point x="622" y="-31"/>
      <point x="655" y="69" type="curve" smooth="yes"/>
      <point x="672" y="119"/>
      <point x="691" y="196"/>
      <point x="694" y="247" type="curve"/>
      <point x="910" y="714" type="line" smooth="yes"/>
      <point x="939" y="777"/>
      <point x="994" y="889"/>
      <point x="1027" y="913" type="curve" smooth="yes"/>
      <point x="1039" y="921"/>
      <point x="1050" y="933"/>
      <point x="1050" y="942" type="curve" smooth="yes"/>
      <point x="1050" y="960"/>
      <point x="1041" y="984"/>
      <point x="1009" y="984" type="curve" smooth="yes"/>
      <point x="865" y="984"/>
      <point x="723" y="776"/>
      <point x="570" y="554" type="curve" smooth="yes"/>
      <point x="545" y="519" type="line"/>
      <point x="490" y="557"/>
      <point x="420" y="581"/>
      <point x="338" y="581" type="curve" smooth="yes"/>
      <point x="76" y="581"/>
      <point x="-131" y="405"/>
      <point x="-122" y="171" type="curve" smooth="yes"/>
      <point x="-118" y="78"/>
      <point x="-76" y="3"/>
      <point x="-6" y="-37" type="curve"/>
      <point x="-66" y="-62"/>
      <point x="-122" y="-80"/>
      <point x="-187" y="-80" type="curve" smooth="yes"/>
      <point x="-241" y="-80"/>
      <point x="-305" y="-51"/>
      <point x="-305" y="8" type="curve" smooth="yes"/>
      <point x="-305" y="25"/>
      <point x="-299" y="45"/>
      <point x="-286" y="68" type="curve"/>
    </contour>
    <contour>
      <point x="107" y="131" type="line"/>
      <point x="91" y="151"/>
      <point x="88" y="172"/>
      <point x="90" y="192" type="curve" smooth="yes"/>
      <point x="95" y="263"/>
      <point x="170" y="328"/>
      <point x="254" y="328" type="curve" smooth="yes"/>
      <point x="297" y="328"/>
      <point x="340" y="308"/>
      <point x="364" y="271" type="curve"/>
      <point x="261" y="145"/>
      <point x="135" y="27"/>
      <point x="7" y="-31" type="curve"/>
      <point x="-56" y="8"/>
      <point x="-94" y="79"/>
      <point x="-98" y="167" type="curve" smooth="yes"/>
      <point x="-107" y="399"/>
      <point x="81" y="572"/>
      <point x="338" y="572" type="curve" smooth="yes"/>
      <point x="416" y="572"/>
      <point x="486" y="549"/>
      <point x="541" y="513" type="curve"/>
      <point x="495" y="446"/>
      <point x="446" y="376"/>
      <point x="398" y="314" type="curve"/>
      <point x="389" y="304"/>
      <point x="382" y="294"/>
      <point x="373" y="283" type="curve"/>
      <point x="345" y="318"/>
      <point x="300" y="337"/>
      <point x="255" y="337" type="curve" smooth="yes"/>
      <point x="166" y="337"/>
      <point x="83" y="266"/>
      <point x="77" y="192" type="curve" smooth="yes"/>
      <point x="75" y="169"/>
      <point x="83" y="147"/>
      <point x="99" y="128" type="curve"/>
    </contour>
    <contour>
      <point x="582" y="554" type="line" smooth="yes"/>
      <point x="667" y="681"/>
      <point x="750" y="803"/>
      <point x="829" y="878" type="curve"/>
      <point x="829" y="877" type="line"/>
      <point x="883" y="924"/>
      <point x="935" y="967"/>
      <point x="995" y="967" type="curve" smooth="yes"/>
      <point x="1022" y="967"/>
      <point x="1042" y="956"/>
      <point x="1042" y="942" type="curve" smooth="yes"/>
      <point x="1042" y="936"/>
      <point x="1035" y="927"/>
      <point x="1023" y="921" type="curve" smooth="yes"/>
      <point x="987" y="901"/>
      <point x="917" y="780"/>
      <point x="887" y="716" type="curve" smooth="yes"/>
      <point x="691" y="293" type="line"/>
      <point x="679" y="374"/>
      <point x="632" y="457"/>
      <point x="555" y="513" type="curve"/>
    </contour>
    <contour>
      <point x="554" y="512" type="line"/>
      <point x="555" y="513" type="line"/>
      <point x="554" y="514"/>
      <point x="553" y="514"/>
      <point x="553" y="515" type="curve"/>
    </contour>
    <contour>
      <point x="128" y="-65" type="curve" smooth="yes"/>
      <point x="91" y="-64"/>
      <point x="58" y="-57"/>
      <point x="28" y="-42" type="curve"/>
      <point x="67" y="-25"/>
      <point x="108" y="-2"/>
      <point x="144" y="23" type="curve" smooth="yes"/>
      <point x="229" y="83"/>
      <point x="302" y="166"/>
      <point x="373" y="257" type="curve"/>
      <point x="382" y="239"/>
      <point x="391" y="205"/>
      <point x="387" y="171" type="curve" smooth="yes"/>
      <point x="373" y="44"/>
      <point x="253" y="-65"/>
    </contour>
    <contour>
      <point x="577" y="-7" type="curve" smooth="yes"/>
      <point x="675" y="206" type="line"/>
      <point x="671" y="158"/>
      <point x="662" y="116"/>
      <point x="647" y="77" type="curve" smooth="yes"/>
      <point x="608" y="-25"/>
      <point x="582" y="-70"/>
      <point x="568" y="-70" type="curve" smooth="yes"/>
      <point x="563" y="-70"/>
      <point x="561" y="-66"/>
      <point x="561" y="-59" type="curve" smooth="yes"/>
      <point x="561" y="-48"/>
      <point x="565" y="-31"/>
    </contour>
    <contour>
      <point x="1026" y="1151" type="curve" smooth="yes"/>
      <point x="1026" y="1129"/>
      <point x="1048" y="1113"/>
      <point x="1080" y="1113" type="curve" smooth="yes"/>
      <point x="1121" y="1113"/>
      <point x="1164" y="1143"/>
      <point x="1164" y="1181" type="curve" smooth="yes"/>
      <point x="1164" y="1203"/>
      <point x="1144" y="1220"/>
      <point x="1111" y="1220" type="curve" smooth="yes"/>
      <point x="1071" y="1220"/>
      <point x="1026" y="1189"/>
    </contour>
    <contour>
      <point x="1111" y="1212" type="curve" smooth="yes"/>
      <point x="1131" y="1212"/>
      <point x="1143" y="1199"/>
      <point x="1143" y="1181" type="curve" smooth="yes"/>
      <point x="1143" y="1149"/>
      <point x="1109" y="1121"/>
      <point x="1080" y="1121" type="curve" smooth="yes"/>
      <point x="1060" y="1121"/>
      <point x="1047" y="1133"/>
      <point x="1047" y="1150" type="curve" smooth="yes"/>
      <point x="1047" y="1183"/>
      <point x="1082" y="1212"/>
    </contour>
  </outline>
</glyph>
<glyph name="AE" format="2">
  <advance width="1432"/>
  <unicode hex="00C6"/>
  <outline>
    <contour>
      <point x="926" y="-107" type="curve" smooth="yes"/>
      <point x="1166" y="-107"/>
      <point x="1357" y="101"/>
      <point x="1369" y="274" type="curve"/>
      <point x="1369" y="372"/>
      <point x="1302" y="483"/>
      <point x="1170" y="483" type="curve" smooth="yes"/>
      <point x="1016" y="483"/>
      <point x="888" y="375"/>
      <point x="874" y="232" type="curve" smooth="yes"/>
      <point x="866" y="128"/>
      <point x="931" y="73"/>
      <point x="1008" y="73" type="curve" smooth="yes"/>
      <point x="1093" y="73"/>
      <point x="1172" y="142"/>
      <point x="1181" y="211" type="curve" smooth="yes"/>
      <point x="1184" y="234"/>
      <point x="1175" y="254"/>
      <point x="1161" y="271" type="curve"/>
      <point x="1157" y="269" type="line"/>
      <point x="1166" y="250"/>
      <point x="1171" y="231"/>
      <point x="1169" y="211" type="curve" smooth="yes"/>
      <point x="1163" y="144"/>
      <point x="1090" y="81"/>
      <point x="1011" y="81" type="curve" smooth="yes"/>
      <point x="943" y="81"/>
      <point x="882" y="127"/>
      <point x="892" y="232" type="curve" smooth="yes"/>
      <point x="904" y="372"/>
      <point x="1022" y="475"/>
      <point x="1168" y="475" type="curve" smooth="yes"/>
      <point x="1295" y="475"/>
      <point x="1352" y="376"/>
      <point x="1353" y="286" type="curve"/>
      <point x="1340" y="116"/>
      <point x="1151" y="-95"/>
      <point x="926" y="-95" type="curve" smooth="yes"/>
      <point x="769" y="-95"/>
      <point x="690" y="27"/>
      <point x="690" y="160" type="curve"/>
      <point x="706" y="372"/>
      <point x="921" y="596"/>
      <point x="1128" y="631" type="curve"/>
      <point x="1173" y="575"/>
      <point x="1249" y="549"/>
      <point x="1289" y="549" type="curve" smooth="yes"/>
      <point x="1338" y="549"/>
      <point x="1347" y="569"/>
      <point x="1347" y="580" type="curve" smooth="yes"/>
      <point x="1347" y="597"/>
      <point x="1311" y="642"/>
      <point x="1179" y="642" type="curve" smooth="yes"/>
      <point x="1167" y="642"/>
      <point x="1152" y="641"/>
      <point x="1140" y="640" type="curve"/>
      <point x="1125" y="664"/>
      <point x="1114" y="695"/>
      <point x="1114" y="730" type="curve" smooth="yes"/>
      <point x="1114" y="862"/>
      <point x="1235" y="958"/>
      <point x="1364" y="958" type="curve" smooth="yes"/>
      <point x="1454" y="958"/>
      <point x="1515" y="895"/>
      <point x="1515" y="829" type="curve" smooth="yes"/>
      <point x="1515" y="792"/>
      <point x="1498" y="736"/>
      <point x="1454" y="724" type="curve"/>
      <point x="1456" y="715" type="line"/>
      <point x="1505" y="728"/>
      <point x="1531" y="784"/>
      <point x="1531" y="824" type="curve" smooth="yes"/>
      <point x="1531" y="894"/>
      <point x="1458" y="966"/>
      <point x="1364" y="966" type="curve" smooth="yes"/>
      <point x="1225" y="966"/>
      <point x="1094" y="866"/>
      <point x="1094" y="730" type="curve" smooth="yes"/>
      <point x="1094" y="693"/>
      <point x="1105" y="663"/>
      <point x="1123" y="638" type="curve"/>
      <point x="997" y="620"/>
      <point x="875" y="548"/>
      <point x="786" y="444" type="curve"/>
      <point x="910" y="714" type="line" smooth="yes"/>
      <point x="939" y="777"/>
      <point x="994" y="889"/>
      <point x="1027" y="913" type="curve" smooth="yes"/>
      <point x="1039" y="921"/>
      <point x="1050" y="933"/>
      <point x="1050" y="942" type="curve" smooth="yes"/>
      <point x="1050" y="960"/>
      <point x="1041" y="984"/>
      <point x="1009" y="984" type="curve" smooth="yes"/>
      <point x="865" y="984"/>
      <point x="722" y="776"/>
      <point x="567" y="551" type="curve" smooth="yes"/>
      <point x="522" y="485"/>
      <point x="474" y="416"/>
      <point x="427" y="352" type="curve"/>
      <point x="321" y="352" type="line"/>
      <point x="321" y="343" type="line"/>
      <point x="419" y="343" type="line"/>
      <point x="398" y="314" type="line" smooth="yes"/>
      <point x="228" y="89"/>
      <point x="20" y="-89"/>
      <point x="-218" y="-75" type="curve" smooth="yes"/>
      <point x="-255" y="-73"/>
      <point x="-305" y="-45"/>
      <point x="-305" y="8" type="curve" smooth="yes"/>
      <point x="-305" y="25"/>
      <point x="-299" y="45"/>
      <point x="-286" y="68" type="curve"/>
      <point x="-290" y="70" type="line"/>
      <point x="-308" y="43"/>
      <point x="-314" y="20"/>
      <point x="-314" y="-1" type="curve" smooth="yes"/>
      <point x="-314" y="-55"/>
      <point x="-261" y="-82"/>
      <point x="-219" y="-85" type="curve" smooth="yes"/>
      <point x="-210" y="-86"/>
      <point x="-197" y="-86"/>
      <point x="-188" y="-86" type="curve" smooth="yes"/>
      <point x="-68" y="-86"/>
      <point x="46" y="-46"/>
      <point x="144" y="23" type="curve" smooth="yes"/>
      <point x="243" y="95"/>
      <point x="331" y="201"/>
      <point x="411" y="308" type="curve" smooth="yes"/>
      <point x="436" y="343" type="line"/>
      <point x="715" y="343" type="line"/>
      <point x="688" y="291"/>
      <point x="671" y="235"/>
      <point x="669" y="178" type="curve" smooth="yes"/>
      <point x="661" y="34"/>
      <point x="747" y="-107"/>
    </contour>
    <contour>
      <point x="829" y="877" type="line"/>
      <point x="883" y="924"/>
      <point x="935" y="967"/>
      <point x="995" y="967" type="curve" smooth="yes"/>
      <point x="1022" y="967"/>
      <point x="1042" y="956"/>
      <point x="1042" y="942" type="curve" smooth="yes"/>
      <point x="1042" y="936"/>
      <point x="1035" y="927"/>
      <point x="1023" y="921" type="curve"/>
      <point x="988" y="901"/>
      <point x="917" y="781"/>
      <point x="887" y="716" type="curve" smooth="yes"/>
      <point x="721" y="354" type="line"/>
      <point x="628" y="354"/>
      <point x="536" y="352"/>
      <point x="443" y="352" type="curve"/>
      <point x="489" y="415"/>
      <point x="534" y="482"/>
      <point x="576" y="545" type="curve" smooth="yes"/>
      <point x="662" y="672"/>
      <point x="750" y="801"/>
      <point x="829" y="878" type="curve"/>
    </contour>
    <contour>
      <point x="757" y="929" type="line"/>
      <point x="728" y="858"/>
      <point x="678" y="833"/>
      <point x="602" y="833" type="curve" smooth="yes"/>
      <point x="552" y="833"/>
      <point x="490" y="846"/>
      <point x="439" y="857" type="curve" smooth="yes"/>
      <point x="391" y="868"/>
      <point x="343" y="878"/>
      <point x="305" y="878" type="curve" smooth="yes"/>
      <point x="142" y="878"/>
      <point x="-1" y="728"/>
      <point x="-1" y="580" type="curve" smooth="yes"/>
      <point x="-1" y="480"/>
      <point x="58" y="371"/>
      <point x="185" y="368" type="curve" smooth="yes"/>
      <point x="314" y="368"/>
      <point x="440" y="481"/>
      <point x="440" y="615" type="curve" smooth="yes"/>
      <point x="440" y="700"/>
      <point x="378" y="745"/>
      <point x="309" y="745" type="curve" smooth="yes"/>
      <point x="221" y="745"/>
      <point x="137" y="672"/>
      <point x="137" y="599" type="curve" smooth="yes"/>
      <point x="137" y="581"/>
      <point x="145" y="568"/>
      <point x="156" y="552" type="curve"/>
      <point x="165" y="554" type="line"/>
      <point x="155" y="570"/>
      <point x="151" y="583"/>
      <point x="151" y="596" type="curve" smooth="yes"/>
      <point x="151" y="667"/>
      <point x="223" y="736"/>
      <point x="308" y="736" type="curve" smooth="yes"/>
      <point x="368" y="736"/>
      <point x="422" y="699"/>
      <point x="422" y="616" type="curve" smooth="yes"/>
      <point x="422" y="489"/>
      <point x="307" y="386"/>
      <point x="194" y="376" type="curve"/>
      <point x="69" y="378"/>
      <point x="14" y="476"/>
      <point x="14" y="568" type="curve" smooth="yes"/>
      <point x="14" y="695"/>
      <point x="142" y="867"/>
      <point x="313" y="867" type="curve" smooth="yes"/>
      <point x="350" y="867"/>
      <point x="393" y="857"/>
      <point x="438" y="847" type="curve" smooth="yes"/>
      <point x="488" y="836"/>
      <point x="540" y="824"/>
      <point x="590" y="824" type="curve" smooth="yes"/>
      <point x="674" y="824"/>
      <point x="732" y="847"/>
      <point x="767" y="919" type="curve"/>
    </contour>
    <contour>
      <point x="1279" y="559" type="curve" smooth="yes"/>
      <point x="1245" y="559"/>
      <point x="1183" y="583"/>
      <point x="1146" y="633" type="curve"/>
      <point x="1157" y="635"/>
      <point x="1168" y="635"/>
      <point x="1180" y="635" type="curve" smooth="yes"/>
      <point x="1294" y="635"/>
      <point x="1326" y="596"/>
      <point x="1326" y="582" type="curve" smooth="yes"/>
      <point x="1326" y="569"/>
      <point x="1307" y="559"/>
    </contour>
  </outline>
</glyph>
<glyph name="icircumflex" format="2">
  <advance width="187"/>
  <unicode hex="00EE"/>
  <outline>
    <contour>
      <point x="121" y="552" type="line"/>
      <point x="-2" y="283" type="line"/>
      <point x="-57" y="162" type="line" smooth="yes"/>
      <point x="-72" y="128"/>
      <point x="-79" y="94"/>
      <point x="-79" y="68" type="curve" smooth="yes"/>
      <point x="-79" y="26"/>
      <point x="-62" y="-2"/>
      <point x="-35" y="-2" type="curve" smooth="yes"/>
      <point x="35" y="-2"/>
      <point x="131" y="146"/>
      <point x="193" y="282" type="curve"/>
      <point x="185" y="284" type="line"/>
      <point x="126" y="156"/>
      <point x="31" y="6"/>
      <point x="-34" y="6" type="curve" smooth="yes"/>
      <point x="-55" y="6"/>
      <point x="-67" y="27"/>
      <point x="-67" y="60" type="curve" smooth="yes"/>
      <point x="-67" y="83"/>
      <point x="-58" y="119"/>
      <point x="-44" y="151" type="curve" smooth="yes"/>
      <point x="147" y="552" type="line"/>
    </contour>
    <contour>
      <point x="62" y="673" type="line"/>
      <point x="62" y="673"/>
      <point x="189" y="768"/>
      <point x="209" y="783" type="curve"/>
      <point x="263" y="678" type="line"/>
      <point x="270" y="680" type="line"/>
      <point x="226" y="818" type="line"/>
      <point x="59" y="680" type="line"/>
    </contour>
  </outline>
</glyph>
<glyph name="udieresis" format="2">
  <advance width="374"/>
  <unicode hex="00FC"/>
  <outline>
    <contour>
      <point x="308" y="552" type="line"/>
      <point x="185" y="283" type="line"/>
      <point x="183" y="277"/>
      <point x="178" y="268"/>
      <point x="175" y="262" type="curve" smooth="yes"/>
      <point x="115" y="142"/>
      <point x="25" y="6"/>
      <point x="-34" y="6" type="curve" smooth="yes"/>
      <point x="-55" y="6"/>
      <point x="-67" y="27"/>
      <point x="-67" y="60" type="curve" smooth="yes"/>
      <point x="-67" y="83"/>
      <point x="-58" y="119"/>
      <point x="-44" y="151" type="curve" smooth="yes"/>
      <point x="147" y="552" type="line"/>
      <point x="121" y="552" type="line"/>
      <point x="-2" y="283" type="line"/>
      <point x="-57" y="162" type="line" smooth="yes"/>
      <point x="-72" y="128"/>
      <point x="-79" y="94"/>
      <point x="-79" y="68" type="curve" smooth="yes"/>
      <point x="-79" y="26"/>
      <point x="-62" y="-2"/>
      <point x="-35" y="-2" type="curve" smooth="yes"/>
      <point x="13" y="-2"/>
      <point x="73" y="65"/>
      <point x="125" y="152" type="curve"/>
      <point x="115" y="124"/>
      <point x="107" y="90"/>
      <point x="107" y="69" type="curve" smooth="yes"/>
      <point x="107" y="26"/>
      <point x="125" y="-2"/>
      <point x="152" y="-2" type="curve" smooth="yes"/>
      <point x="222" y="-2"/>
      <point x="318" y="146"/>
      <point x="380" y="282" type="curve"/>
      <point x="372" y="284" type="line"/>
      <point x="313" y="156"/>
      <point x="218" y="6"/>
      <point x="152" y="6" type="curve" smooth="yes"/>
      <point x="131" y="6"/>
      <point x="119" y="27"/>
      <point x="119" y="60" type="curve" smooth="yes"/>
      <point x="119" y="83"/>
      <point x="128" y="119"/>
      <point x="142" y="151" type="curve" smooth="yes"/>
      <point x="334" y="552" type="line"/>
    </contour>
    <contour>
      <point x="211" y="735" type="line"/>
      <point x="209" y="725"/>
      <point x="214" y="715"/>
      <point x="226" y="715" type="curve" smooth="yes"/>
      <point x="237" y="715"/>
      <point x="249" y="722"/>
      <point x="252" y="734" type="curve"/>
      <point x="257" y="747"/>
      <point x="250" y="756"/>
      <point x="238" y="756" type="curve" smooth="yes"/>
      <point x="226" y="756"/>
      <point x="215" y="748"/>
      <point x="211" y="736" type="curve"/>
    </contour>
    <contour>
      <point x="316" y="735" type="line"/>
      <point x="314" y="725"/>
      <point x="319" y="715"/>
      <point x="331" y="715" type="curve" smooth="yes"/>
      <point x="342" y="715"/>
      <point x="354" y="722"/>
      <point x="357" y="734" type="curve"/>
      <point x="362" y="747"/>
      <point x="355" y="756"/>
      <point x="343" y="756" type="curve" smooth="yes"/>
      <point x="331" y="756"/>
      <point x="320" y="748"/>
      <point x="316" y="736" type="curve"/>
    </contour>
  </outline>
</glyph>
<glyph name="thorn" format="2">
  <advance width="388"/>
  <unicode hex="00FE"/>
  <outline>
    <contour>
      <point x="-296" y="-398" type="line"/>
      <point x="-182" y="-154"/>
      <point x="-56" y="120"/>
      <point x="58" y="364" type="curve"/>
      <point x="119" y="474"/>
      <point x="204" y="555"/>
      <point x="258" y="555" type="curve" smooth="yes"/>
      <point x="291" y="555"/>
      <point x="306" y="524"/>
      <point x="306" y="472" type="curve" smooth="yes"/>
      <point x="306" y="460"/>
      <point x="305" y="443"/>
      <point x="303" y="428" type="curve" smooth="yes"/>
      <point x="296" y="380"/>
      <point x="284" y="329"/>
      <point x="262" y="277" type="curve" smooth="yes"/>
      <point x="198" y="126"/>
      <point x="83" y="-5"/>
      <point x="17" y="-5" type="curve" smooth="yes"/>
      <point x="-31" y="-5"/>
      <point x="-44" y="28"/>
      <point x="-38" y="66" type="curve" smooth="yes"/>
      <point x="-33" y="102"/>
      <point x="-13" y="143"/>
      <point x="14" y="169" type="curve"/>
      <point x="13" y="176" type="line"/>
      <point x="-20" y="146"/>
      <point x="-45" y="102"/>
      <point x="-50" y="66" type="curve" smooth="yes"/>
      <point x="-55" y="24"/>
      <point x="-34" y="-14"/>
      <point x="17" y="-14" type="curve" smooth="yes"/>
      <point x="96" y="-14"/>
      <point x="218" y="110"/>
      <point x="281" y="270" type="curve" smooth="yes"/>
      <point x="301" y="321"/>
      <point x="315" y="370"/>
      <point x="323" y="420" type="curve" smooth="yes"/>
      <point x="325" y="432"/>
      <point x="326" y="446"/>
      <point x="326" y="457" type="curve" smooth="yes"/>
      <point x="326" y="522"/>
      <point x="300" y="565"/>
      <point x="260" y="565" type="curve" smooth="yes"/>
      <point x="213" y="565"/>
      <point x="148" y="517"/>
      <point x="94" y="443" type="curve"/>
      <point x="341" y="973" type="line"/>
      <point x="316" y="973" type="line"/>
      <point x="-319" y="-398" type="line"/>
    </contour>
  </outline>
</glyph>
<glyph name="amacron" format="2">
  <advance width="446"/>
  <unicode hex="0101"/>
  <outline>
    <contour>
      <point x="261" y="556" type="curve" smooth="yes"/>
      <point x="309" y="556"/>
      <point x="322" y="523"/>
      <point x="316" y="485" type="curve" smooth="yes"/>
      <point x="311" y="449"/>
      <point x="291" y="408"/>
      <point x="264" y="382" type="curve"/>
      <point x="265" y="375" type="line"/>
      <point x="298" y="405"/>
      <point x="323" y="449"/>
      <point x="328" y="485" type="curve" smooth="yes"/>
      <point x="333" y="527"/>
      <point x="312" y="565"/>
      <point x="261" y="565" type="curve" smooth="yes"/>
      <point x="182" y="565"/>
      <point x="64" y="440"/>
      <point x="-3" y="281" type="curve" smooth="yes"/>
      <point x="-42" y="188"/>
      <point x="-92" y="-14"/>
      <point x="18" y="-14" type="curve" smooth="yes"/>
      <point x="62" y="-14"/>
      <point x="134" y="40"/>
      <point x="185" y="120" type="curve"/>
      <point x="181" y="103"/>
      <point x="179" y="85"/>
      <point x="179" y="69" type="curve" smooth="yes"/>
      <point x="179" y="26"/>
      <point x="197" y="-2"/>
      <point x="224" y="-2" type="curve" smooth="yes"/>
      <point x="294" y="-2"/>
      <point x="390" y="146"/>
      <point x="452" y="282" type="curve"/>
      <point x="444" y="284" type="line"/>
      <point x="385" y="156"/>
      <point x="290" y="6"/>
      <point x="224" y="6" type="curve" smooth="yes"/>
      <point x="203" y="6"/>
      <point x="191" y="27"/>
      <point x="191" y="60" type="curve" smooth="yes"/>
      <point x="191" y="83"/>
      <point x="199" y="119"/>
      <point x="214" y="151" type="curve" smooth="yes"/>
      <point x="406" y="552" type="line"/>
      <point x="380" y="552" type="line"/>
      <point x="213" y="188" type="line" smooth="yes"/>
      <point x="159" y="71"/>
      <point x="70" y="-4"/>
      <point x="20" y="-4" type="curve" smooth="yes"/>
      <point x="-13" y="-4"/>
      <point x="-28" y="27"/>
      <point x="-28" y="79" type="curve" smooth="yes"/>
      <point x="-28" y="91"/>
      <point x="-27" y="108"/>
      <point x="-25" y="123" type="curve" smooth="yes"/>
      <point x="-18" y="171"/>
      <point x="-6" y="222"/>
      <point x="16" y="274" type="curve" smooth="yes"/>
      <point x="80" y="425"/>
      <point x="195" y="556"/>
    </contour>
    <contour>
      <point x="226" y="706" type="line"/>
      <point x="486" y="706" type="line"/>
      <point x="486" y="716" type="line"/>
      <point x="226" y="716" type="line"/>
    </contour>
  </outline>
</glyph>
<glyph name="Cacute" format="2">
  <advance width="751"/>
  <unicode hex="0106"/>
  <outline>
    <contour>
      <point x="909" y="714" type="curve" smooth="yes"/>
      <point x="912" y="622"/>
      <point x="830" y="497"/>
      <point x="690" y="497" type="curve" smooth="yes"/>
      <point x="586" y="497"/>
      <point x="540" y="567"/>
      <point x="538" y="626" type="curve" smooth="yes"/>
      <point x="536" y="688"/>
      <point x="584" y="767"/>
      <point x="671" y="767" type="curve" smooth="yes"/>
      <point x="739" y="767"/>
      <point x="775" y="720"/>
      <point x="776" y="685" type="curve" smooth="yes"/>
      <point x="777" y="666"/>
      <point x="768" y="634"/>
      <point x="739" y="620" type="curve"/>
      <point x="740" y="612" type="line"/>
      <point x="774" y="628"/>
      <point x="784" y="664"/>
      <point x="783" y="685" type="curve" smooth="yes"/>
      <point x="782" y="723"/>
      <point x="743" y="774"/>
      <point x="670" y="774" type="curve" smooth="yes"/>
      <point x="575" y="774"/>
      <point x="520" y="695"/>
      <point x="522" y="630" type="curve" smooth="yes"/>
      <point x="523" y="573"/>
      <point x="571" y="489"/>
      <point x="692" y="489" type="curve" smooth="yes"/>
      <point x="836" y="489"/>
      <point x="929" y="611"/>
      <point x="927" y="704" type="curve" smooth="yes"/>
      <point x="924" y="788"/>
      <point x="856" y="909"/>
      <point x="655" y="909" type="curve" smooth="yes"/>
      <point x="279" y="909"/>
      <point x="-48" y="476"/>
      <point x="-39" y="180" type="curve" smooth="yes"/>
      <point x="-34" y="28"/>
      <point x="54" y="-136"/>
      <point x="253" y="-136" type="curve" smooth="yes"/>
      <point x="478" y="-136"/>
      <point x="653" y="66"/>
      <point x="653" y="231" type="curve" smooth="yes"/>
      <point x="653" y="354"/>
      <point x="556" y="437"/>
      <point x="444" y="437" type="curve" smooth="yes"/>
      <point x="300" y="437"/>
      <point x="157" y="328"/>
      <point x="161" y="181" type="curve" smooth="yes"/>
      <point x="164" y="83"/>
      <point x="231" y="30"/>
      <point x="305" y="30" type="curve" smooth="yes"/>
      <point x="390" y="30"/>
      <point x="475" y="102"/>
      <point x="472" y="174" type="curve" smooth="yes"/>
      <point x="472" y="195"/>
      <point x="463" y="209"/>
      <point x="451" y="223" type="curve"/>
      <point x="448" y="222" type="line"/>
      <point x="454" y="208"/>
      <point x="461" y="194"/>
      <point x="461" y="176" type="curve" smooth="yes"/>
      <point x="463" y="110"/>
      <point x="388" y="38"/>
      <point x="308" y="38" type="curve" smooth="yes"/>
      <point x="251" y="38"/>
      <point x="184" y="74"/>
      <point x="180" y="178" type="curve" smooth="yes"/>
      <point x="176" y="319"/>
      <point x="297" y="429"/>
      <point x="442" y="429" type="curve" smooth="yes"/>
      <point x="560" y="429"/>
      <point x="634" y="341"/>
      <point x="634" y="237" type="curve" smooth="yes"/>
      <point x="634" y="71"/>
      <point x="458" y="-127"/>
      <point x="252" y="-127" type="curve" smooth="yes"/>
      <point x="88" y="-127"/>
      <point x="-10" y="9"/>
      <point x="-19" y="163" type="curve"/>
      <point x="-20" y="451"/>
      <point x="290" y="901"/>
      <point x="655" y="901" type="curve" smooth="yes"/>
      <point x="816" y="901"/>
      <point x="906" y="815"/>
    </contour>
    <contour>
      <point x="826" y="1124" type="line"/>
      <point x="869" y="1144"/>
      <point x="917" y="1168"/>
      <point x="960" y="1189" type="curve"/>
      <point x="969" y="1194"/>
      <point x="977" y="1200"/>
      <point x="977" y="1209" type="curve" smooth="yes"/>
      <point x="977" y="1217"/>
      <point x="972" y="1222"/>
      <point x="963" y="1222" type="curve" smooth="yes"/>
      <point x="954" y="1222"/>
      <point x="946" y="1218"/>
      <point x="942" y="1215" type="curve" smooth="yes"/>
      <point x="823" y="1130" type="line"/>
    </contour>
  </outline>
</glyph>
<glyph name="cacute" format="2">
  <advance width="346"/>
  <unicode hex="0107"/>
  <outline>
    <contour>
      <point x="185" y="438" type="line"/>
      <point x="164" y="420"/>
      <point x="156" y="397"/>
      <point x="156" y="379" type="curve" smooth="yes"/>
      <point x="156" y="349"/>
      <point x="175" y="333"/>
      <point x="199" y="333" type="curve" smooth="yes"/>
      <point x="266" y="333"/>
      <point x="329" y="439"/>
      <point x="329" y="496" type="curve" smooth="yes"/>
      <point x="329" y="531"/>
      <point x="307" y="565"/>
      <point x="268" y="565" type="curve" smooth="yes"/>
      <point x="177" y="565"/>
      <point x="5" y="380"/>
      <point x="-31" y="175" type="curve" smooth="yes"/>
      <point x="-34" y="156"/>
      <point x="-36" y="134"/>
      <point x="-36" y="117" type="curve" smooth="yes"/>
      <point x="-36" y="35"/>
      <point x="0" y="-14"/>
      <point x="57" y="-14" type="curve" smooth="yes"/>
      <point x="173" y="-14"/>
      <point x="284" y="140"/>
      <point x="352" y="282" type="curve"/>
      <point x="344" y="284" type="line"/>
      <point x="279" y="147"/>
      <point x="169" y="-4"/>
      <point x="57" y="-4" type="curve" smooth="yes"/>
      <point x="12" y="-4"/>
      <point x="-18" y="37"/>
      <point x="-18" y="111" type="curve" smooth="yes"/>
      <point x="-18" y="128"/>
      <point x="-16" y="147"/>
      <point x="-13" y="167" type="curve" smooth="yes"/>
      <point x="21" y="363"/>
      <point x="181" y="556"/>
      <point x="267" y="556" type="curve" smooth="yes"/>
      <point x="298" y="556"/>
      <point x="312" y="530"/>
      <point x="312" y="501" type="curve" smooth="yes"/>
      <point x="312" y="448"/>
      <point x="255" y="341"/>
      <point x="198" y="341" type="curve" smooth="yes"/>
      <point x="181" y="341"/>
      <point x="170" y="356"/>
      <point x="170" y="382" type="curve" smooth="yes"/>
      <point x="170" y="397"/>
      <point x="175" y="417"/>
      <point x="189" y="437" type="curve"/>
    </contour>
    <contour>
      <point x="278" y="692" type="line"/>
      <point x="321" y="712"/>
      <point x="369" y="736"/>
      <point x="412" y="757" type="curve"/>
      <point x="421" y="762"/>
      <point x="429" y="768"/>
      <point x="429" y="777" type="curve" smooth="yes"/>
      <point x="429" y="785"/>
      <point x="424" y="790"/>
      <point x="415" y="790" type="curve" smooth="yes"/>
      <point x="406" y="790"/>
      <point x="398" y="786"/>
      <point x="394" y="783" type="curve" smooth="yes"/>
      <point x="275" y="698" type="line"/>
    </contour>
  </outline>
</glyph>
<glyph name="Eogonek" format="2">
  <advance width="766"/>
  <unicode hex="0118"/>
  <outline>
    <contour>
      <point x="238" y="-126" type="curve" smooth="yes"/>
      <point x="248" y="-126"/>
      <point x="261" y="-125"/>
      <point x="271" y="-124" type="curve"/>
      <point x="275" y="-124" type="line"/>
      <point x="233" y="-150"/>
      <point x="216" y="-180"/>
      <point x="216" y="-208" type="curve" smooth="yes"/>
      <point x="216" y="-237"/>
      <point x="239" y="-262"/>
      <point x="273" y="-262" type="curve" smooth="yes"/>
      <point x="283" y="-262"/>
      <point x="293" y="-260"/>
      <point x="302" y="-257" type="curve"/>
      <point x="300" y="-248" type="line"/>
      <point x="289" y="-252"/>
      <point x="279" y="-254"/>
      <point x="273" y="-254" type="curve" smooth="yes"/>
      <point x="248" y="-254"/>
      <point x="234" y="-236"/>
      <point x="234" y="-214" type="curve" smooth="yes"/>
      <point x="234" y="-183"/>
      <point x="249" y="-146"/>
      <point x="301" y="-121" type="curve"/>
      <point x="300" y="-121" type="line"/>
      <point x="492" y="-82"/>
      <point x="681" y="72"/>
      <point x="681" y="266" type="curve" smooth="yes"/>
      <point x="681" y="364"/>
      <point x="614" y="464"/>
      <point x="482" y="464" type="curve" smooth="yes"/>
      <point x="328" y="464"/>
      <point x="200" y="356"/>
      <point x="186" y="213" type="curve" smooth="yes"/>
      <point x="178" y="109"/>
      <point x="243" y="54"/>
      <point x="320" y="54" type="curve" smooth="yes"/>
      <point x="405" y="54"/>
      <point x="484" y="123"/>
      <point x="493" y="192" type="curve" smooth="yes"/>
      <point x="496" y="215"/>
      <point x="487" y="235"/>
      <point x="473" y="252" type="curve"/>
      <point x="469" y="250" type="line"/>
      <point x="478" y="231"/>
      <point x="483" y="212"/>
      <point x="481" y="192" type="curve" smooth="yes"/>
      <point x="475" y="125"/>
      <point x="402" y="62"/>
      <point x="323" y="62" type="curve" smooth="yes"/>
      <point x="255" y="62"/>
      <point x="194" y="108"/>
      <point x="204" y="213" type="curve" smooth="yes"/>
      <point x="216" y="353"/>
      <point x="334" y="456"/>
      <point x="480" y="456" type="curve" smooth="yes"/>
      <point x="607" y="456"/>
      <point x="668" y="357"/>
      <point x="665" y="267" type="curve" smooth="yes"/>
      <point x="659" y="97"/>
      <point x="463" y="-114"/>
      <point x="238" y="-114" type="curve" smooth="yes"/>
      <point x="81" y="-114"/>
      <point x="2" y="8"/>
      <point x="2" y="141" type="curve"/>
      <point x="18" y="353"/>
      <point x="233" y="577"/>
      <point x="440" y="612" type="curve"/>
      <point x="485" y="556"/>
      <point x="561" y="530"/>
      <point x="601" y="530" type="curve" smooth="yes"/>
      <point x="650" y="530"/>
      <point x="659" y="550"/>
      <point x="659" y="561" type="curve" smooth="yes"/>
      <point x="659" y="578"/>
      <point x="623" y="623"/>
      <point x="491" y="623" type="curve" smooth="yes"/>
      <point x="479" y="623"/>
      <point x="464" y="622"/>
      <point x="452" y="621" type="curve"/>
      <point x="437" y="645"/>
      <point x="426" y="676"/>
      <point x="426" y="711" type="curve" smooth="yes"/>
      <point x="426" y="843"/>
      <point x="547" y="939"/>
      <point x="676" y="939" type="curve" smooth="yes"/>
      <point x="766" y="939"/>
      <point x="827" y="876"/>
      <point x="827" y="810" type="curve" smooth="yes"/>
      <point x="827" y="773"/>
      <point x="810" y="717"/>
      <point x="766" y="705" type="curve"/>
      <point x="768" y="696" type="line"/>
      <point x="817" y="709"/>
      <point x="843" y="765"/>
      <point x="843" y="805" type="curve" smooth="yes"/>
      <point x="843" y="875"/>
      <point x="770" y="947"/>
      <point x="676" y="947" type="curve" smooth="yes"/>
      <point x="537" y="947"/>
      <point x="406" y="847"/>
      <point x="406" y="711" type="curve" smooth="yes"/>
      <point x="406" y="674"/>
      <point x="417" y="643"/>
      <point x="435" y="618" type="curve"/>
      <point x="222" y="586"/>
      <point x="-4" y="375"/>
      <point x="-19" y="159" type="curve"/>
      <point x="-18" y="23"/>
      <point x="68" y="-126"/>
    </contour>
    <contour>
      <point x="591" y="540" type="curve" smooth="yes"/>
      <point x="557" y="540"/>
      <point x="495" y="564"/>
      <point x="458" y="614" type="curve"/>
      <point x="469" y="616"/>
      <point x="480" y="616"/>
      <point x="492" y="616" type="curve" smooth="yes"/>
      <point x="606" y="616"/>
      <point x="638" y="577"/>
      <point x="638" y="563" type="curve" smooth="yes"/>
      <point x="638" y="550"/>
      <point x="619" y="540"/>
    </contour>
  </outline>
</glyph>
<glyph name="Ecaron" format="2">
  <advance width="766"/>
  <unicode hex="011A"/>
  <outline>
    <contour>
      <point x="238" y="-126" type="curve" smooth="yes"/>
      <point x="478" y="-126"/>
      <point x="682" y="96"/>
      <point x="682" y="269" type="curve" smooth="yes"/>
      <point x="682" y="367"/>
      <point x="614" y="464"/>
      <point x="482" y="464" type="curve" smooth="yes"/>
      <point x="328" y="464"/>
      <point x="200" y="356"/>
      <point x="186" y="213" type="curve" smooth="yes"/>
      <point x="178" y="109"/>
      <point x="243" y="54"/>
      <point x="320" y="54" type="curve" smooth="yes"/>
      <point x="405" y="54"/>
      <point x="484" y="123"/>
      <point x="493" y="192" type="curve" smooth="yes"/>
      <point x="496" y="215"/>
      <point x="489" y="236"/>
      <point x="473" y="252" type="curve"/>
      <point x="469" y="250" type="line"/>
      <point x="478" y="231"/>
      <point x="483" y="212"/>
      <point x="481" y="192" type="curve" smooth="yes"/>
      <point x="475" y="125"/>
      <point x="402" y="62"/>
      <point x="323" y="62" type="curve" smooth="yes"/>
      <point x="255" y="62"/>
      <point x="194" y="108"/>
      <point x="204" y="213" type="curve" smooth="yes"/>
      <point x="216" y="353"/>
      <point x="334" y="456"/>
      <point x="480" y="456" type="curve" smooth="yes"/>
      <point x="607" y="456"/>
      <point x="669" y="371"/>
      <point x="666" y="281" type="curve" smooth="yes"/>
      <point x="660" y="111"/>
      <point x="463" y="-114"/>
      <point x="238" y="-114" type="curve" smooth="yes"/>
      <point x="81" y="-114"/>
      <point x="2" y="8"/>
      <point x="2" y="141" type="curve" smooth="yes"/>
      <point x="2" y="354"/>
      <point x="233" y="577"/>
      <point x="440" y="612" type="curve"/>
      <point x="485" y="556"/>
      <point x="561" y="530"/>
      <point x="601" y="530" type="curve" smooth="yes"/>
      <point x="650" y="530"/>
      <point x="659" y="550"/>
      <point x="659" y="561" type="curve" smooth="yes"/>
      <point x="659" y="578"/>
      <point x="623" y="623"/>
      <point x="491" y="623" type="curve" smooth="yes"/>
      <point x="479" y="623"/>
      <point x="464" y="622"/>
      <point x="452" y="621" type="curve"/>
      <point x="437" y="645"/>
      <point x="426" y="676"/>
      <point x="426" y="711" type="curve" smooth="yes"/>
      <point x="426" y="843"/>
      <point x="547" y="939"/>
      <point x="676" y="939" type="curve" smooth="yes"/>
      <point x="771" y="939"/>
      <point x="827" y="876"/>
      <point x="827" y="810" type="curve" smooth="yes"/>
      <point x="827" y="773"/>
      <point x="810" y="717"/>
      <point x="766" y="705" type="curve"/>
      <point x="768" y="696" type="line"/>
      <point x="817" y="709"/>
      <point x="843" y="765"/>
      <point x="843" y="805" type="curve" smooth="yes"/>
      <point x="843" y="875"/>
      <point x="781" y="947"/>
      <point x="676" y="947" type="curve" smooth="yes"/>
      <point x="537" y="947"/>
      <point x="406" y="847"/>
      <point x="406" y="711" type="curve" smooth="yes"/>
      <point x="406" y="674"/>
      <point x="417" y="643"/>
      <point x="435" y="618" type="curve"/>
      <point x="222" y="586"/>
      <point x="-12" y="375"/>
      <point x="-19" y="159" type="curve" smooth="yes"/>
      <point x="-23" y="23"/>
      <point x="68" y="-126"/>
    </contour>
    <contour>
      <point x="591" y="540" type="curve" smooth="yes"/>
      <point x="557" y="540"/>
      <point x="495" y="564"/>
      <point x="458" y="614" type="curve"/>
      <point x="469" y="616"/>
      <point x="480" y="616"/>
      <point x="492" y="616" type="curve" smooth="yes"/>
      <point x="606" y="616"/>
      <point x="638" y="577"/>
      <point x="638" y="563" type="curve" smooth="yes"/>
      <point x="638" y="550"/>
      <point x="619" y="540"/>
    </contour>
    <contour>
      <point x="906" y="1249" type="line"/>
      <point x="906" y="1249"/>
      <point x="778" y="1158"/>
      <point x="753" y="1140" type="curve"/>
      <point x="705" y="1243" type="line"/>
      <point x="698" y="1242" type="line"/>
      <point x="742" y="1104" type="line"/>
      <point x="909" y="1242" type="line"/>
    </contour>
  </outline>
</glyph>
<glyph name="gcommaaccent" format="2">
  <advance width="446"/>
  <unicode hex="0123"/>
  <outline>
    <contour>
      <point x="273" y="556" type="curve" smooth="yes"/>
      <point x="317" y="556"/>
      <point x="330" y="528"/>
      <point x="324" y="495" type="curve"/>
      <point x="328" y="495" type="line"/>
      <point x="336" y="533"/>
      <point x="324" y="565"/>
      <point x="273" y="565" type="curve" smooth="yes"/>
      <point x="188" y="565"/>
      <point x="62" y="440"/>
      <point x="-3" y="281" type="curve" smooth="yes"/>
      <point x="-37" y="198"/>
      <point x="-94" y="3"/>
      <point x="17" y="3" type="curve" smooth="yes"/>
      <point x="66" y="3"/>
      <point x="139" y="75"/>
      <point x="207" y="163" type="curve"/>
      <point x="204" y="153"/>
      <point x="202" y="150"/>
      <point x="199" y="141" type="curve" smooth="yes"/>
      <point x="186" y="100"/>
      <point x="169" y="53"/>
      <point x="155" y="12" type="curve" smooth="yes"/>
      <point x="131" y="-55" type="line"/>
      <point x="86" y="-85"/>
      <point x="43" y="-110"/>
      <point x="3" y="-133" type="curve" smooth="yes"/>
      <point x="-5" y="-138"/>
      <point x="-13" y="-143"/>
      <point x="-21" y="-147" type="curve"/>
      <point x="-34" y="-155" type="line" smooth="yes"/>
      <point x="-110" y="-199"/>
      <point x="-197" y="-252"/>
      <point x="-248" y="-313" type="curve" smooth="yes"/>
      <point x="-273" y="-344"/>
      <point x="-289" y="-382"/>
      <point x="-290" y="-418" type="curve" smooth="yes"/>
      <point x="-293" y="-460"/>
      <point x="-271" y="-495"/>
      <point x="-218" y="-499" type="curve" smooth="yes"/>
      <point x="-146" y="-504"/>
      <point x="-31" y="-446"/>
      <point x="46" y="-308" type="curve" smooth="yes"/>
      <point x="74" y="-257"/>
      <point x="98" y="-184"/>
      <point x="124" y="-106" type="curve" smooth="yes"/>
      <point x="140" y="-59" type="line"/>
      <point x="254" y="16"/>
      <point x="376" y="123"/>
      <point x="452" y="282" type="curve"/>
      <point x="444" y="284" type="line"/>
      <point x="372" y="130"/>
      <point x="256" y="31"/>
      <point x="144" y="-45" type="curve"/>
      <point x="148" y="-35" type="line"/>
      <point x="164" y="10" type="line"/>
      <point x="173" y="36" type="line" smooth="yes"/>
      <point x="190" y="84"/>
      <point x="210" y="142"/>
      <point x="232" y="198" type="curve"/>
      <point x="279" y="264"/>
      <point x="328" y="347"/>
      <point x="354" y="400" type="curve" smooth="yes"/>
      <point x="394" y="486"/>
      <point x="437" y="567"/>
      <point x="405" y="567" type="curve" smooth="yes"/>
      <point x="389" y="567"/>
      <point x="347" y="511"/>
      <point x="287" y="378" type="curve" smooth="yes"/>
      <point x="278" y="358" type="line" smooth="yes"/>
      <point x="255" y="306"/>
      <point x="235" y="248"/>
      <point x="216" y="193" type="curve"/>
      <point x="147" y="98"/>
      <point x="65" y="12"/>
      <point x="17" y="12" type="curve" smooth="yes"/>
      <point x="-36" y="12"/>
      <point x="-31" y="94"/>
      <point x="-26" y="126" type="curve" smooth="yes"/>
      <point x="-19" y="175"/>
      <point x="-7" y="221"/>
      <point x="16" y="274" type="curve" smooth="yes"/>
      <point x="83" y="426"/>
      <point x="201" y="556"/>
    </contour>
    <contour>
      <point x="24" y="-305" type="curve" smooth="yes"/>
      <point x="-47" y="-433"/>
      <point x="-152" y="-496"/>
      <point x="-217" y="-491" type="curve" smooth="yes"/>
      <point x="-261" y="-488"/>
      <point x="-284" y="-463"/>
      <point x="-282" y="-425" type="curve" smooth="yes"/>
      <point x="-280" y="-390"/>
      <point x="-261" y="-356"/>
      <point x="-236" y="-323" type="curve" smooth="yes"/>
      <point x="-184" y="-258"/>
      <point x="-79" y="-192"/>
      <point x="-18" y="-155" type="curve"/>
      <point x="-3" y="-147" type="line"/>
      <point x="37" y="-123"/>
      <point x="80" y="-98"/>
      <point x="126" y="-69" type="curve"/>
      <point x="92" y="-160"/>
      <point x="61" y="-243"/>
    </contour>
    <contour>
      <point x="405" y="558" type="curve" smooth="yes"/>
      <point x="417" y="558"/>
      <point x="388" y="491"/>
      <point x="346" y="405" type="curve" smooth="yes"/>
      <point x="324" y="360"/>
      <point x="289" y="299"/>
      <point x="247" y="237" type="curve"/>
      <point x="265" y="283"/>
      <point x="279" y="313"/>
      <point x="299" y="356" type="curve" smooth="yes"/>
      <point x="306" y="371" type="line" smooth="yes"/>
      <point x="377" y="518"/>
      <point x="398" y="558"/>
    </contour>
    <contour>
      <point x="344" y="680" type="curve" smooth="yes"/>
      <point x="360" y="680"/>
      <point x="375" y="694"/>
      <point x="375" y="709" type="curve" smooth="yes"/>
      <point x="375" y="718"/>
      <point x="370" y="727"/>
      <point x="358" y="727" type="curve" smooth="yes"/>
      <point x="351" y="727" type="line"/>
      <point x="350" y="729"/>
      <point x="352" y="735"/>
      <point x="353" y="737" type="curve"/>
      <point x="367" y="757"/>
      <point x="382" y="775"/>
      <point x="402" y="789" type="curve"/>
      <point x="400" y="798" type="line"/>
      <point x="369" y="777"/>
      <point x="326" y="734"/>
      <point x="326" y="703" type="curve" smooth="yes"/>
      <point x="326" y="689"/>
      <point x="335" y="680"/>
    </contour>
  </outline>
</glyph>
<glyph name="iogonek" format="2">
  <advance width="187"/>
  <unicode hex="012F"/>
  <outline>
    <contour>
      <point x="121" y="552" type="line"/>
      <point x="-2" y="283" type="line"/>
      <point x="-57" y="162" type="line" smooth="yes"/>
      <point x="-72" y="128"/>
      <point x="-79" y="94"/>
      <point x="-79" y="68" type="curve" smooth="yes"/>
      <point x="-79" y="30"/>
      <point x="-66" y="2"/>
      <point x="-43" y="-2" type="curve"/>
      <point x="-90" y="-28"/>
      <point x="-111" y="-61"/>
      <point x="-111" y="-90" type="curve" smooth="yes"/>
      <point x="-111" y="-119"/>
      <point x="-88" y="-144"/>
      <point x="-54" y="-144" type="curve" smooth="yes"/>
      <point x="-44" y="-144"/>
      <point x="-34" y="-142"/>
      <point x="-25" y="-139" type="curve"/>
      <point x="-27" y="-130" type="line"/>
      <point x="-38" y="-134"/>
      <point x="-48" y="-136"/>
      <point x="-54" y="-136" type="curve" smooth="yes"/>
      <point x="-79" y="-136"/>
      <point x="-93" y="-118"/>
      <point x="-93" y="-96" type="curve" smooth="yes"/>
      <point x="-93" y="-66"/>
      <point x="-66" y="-24"/>
      <point x="-17" y="1" type="curve"/>
      <point x="49" y="28"/>
      <point x="137" y="161"/>
      <point x="193" y="282" type="curve"/>
      <point x="185" y="284" type="line"/>
      <point x="126" y="156"/>
      <point x="31" y="6"/>
      <point x="-34" y="6" type="curve" smooth="yes"/>
      <point x="-55" y="6"/>
      <point x="-67" y="27"/>
      <point x="-67" y="60" type="curve" smooth="yes"/>
      <point x="-67" y="83"/>
      <point x="-58" y="119"/>
      <point x="-44" y="151" type="curve" smooth="yes"/>
      <point x="147" y="552" type="line"/>
    </contour>
    <contour>
      <point x="195" y="735" type="line"/>
      <point x="193" y="725"/>
      <point x="198" y="715"/>
      <point x="210" y="715" type="curve" smooth="yes"/>
      <point x="221" y="715"/>
      <point x="233" y="722"/>
      <point x="236" y="734" type="curve"/>
      <point x="241" y="747"/>
      <point x="234" y="756"/>
      <point x="222" y="756" type="curve" smooth="yes"/>
      <point x="210" y="756"/>
      <point x="199" y="748"/>
      <point x="195" y="736" type="curve"/>
    </contour>
  </outline>
</glyph>
<glyph name="kcommaaccent" format="2">
  <advance width="476"/>
  <unicode hex="0137"/>
  <outline>
    <contour>
      <point x="31" y="-136" type="curve" smooth="yes"/>
      <point x="15" y="-136"/>
      <point x="0" y="-150"/>
      <point x="0" y="-165" type="curve" smooth="yes"/>
      <point x="0" y="-174"/>
      <point x="5" y="-183"/>
      <point x="17" y="-183" type="curve" smooth="yes"/>
      <point x="24" y="-183" type="line"/>
      <point x="25" y="-185"/>
      <point x="23" y="-191"/>
      <point x="22" y="-193" type="curve"/>
      <point x="8" y="-213"/>
      <point x="-7" y="-231"/>
      <point x="-27" y="-245" type="curve"/>
      <point x="-25" y="-254" type="line"/>
      <point x="6" y="-233"/>
      <point x="49" y="-190"/>
      <point x="49" y="-159" type="curve" smooth="yes"/>
      <point x="49" y="-145"/>
      <point x="40" y="-136"/>
    </contour>
    <contour>
      <point x="81" y="204" type="line" smooth="yes"/>
      <point x="108" y="258"/>
      <point x="134" y="327"/>
      <point x="156" y="390" type="curve" smooth="yes"/>
      <point x="162" y="407" type="line"/>
      <point x="232" y="503"/>
      <point x="311" y="588"/>
      <point x="362" y="588" type="curve" smooth="yes"/>
      <point x="385" y="588"/>
      <point x="415" y="576"/>
      <point x="415" y="514" type="curve" smooth="yes"/>
      <point x="415" y="439"/>
      <point x="352" y="336"/>
      <point x="271" y="336" type="curve" smooth="yes"/>
      <point x="258" y="336"/>
      <point x="238" y="341"/>
      <point x="225" y="365" type="curve"/>
      <point x="221" y="364" type="line"/>
      <point x="219" y="356" type="line"/>
      <point x="220" y="354"/>
      <point x="221" y="352"/>
      <point x="223" y="350" type="curve"/>
      <point x="218" y="341" type="line"/>
      <point x="216" y="338"/>
      <point x="213" y="331"/>
      <point x="212" y="328" type="curve"/>
      <point x="176" y="268"/>
      <point x="148" y="211"/>
      <point x="148" y="133" type="curve" smooth="yes"/>
      <point x="148" y="54"/>
      <point x="182" y="-2"/>
      <point x="237" y="-2" type="curve" smooth="yes"/>
      <point x="323" y="-2"/>
      <point x="420" y="146"/>
      <point x="482" y="282" type="curve"/>
      <point x="474" y="284" type="line"/>
      <point x="415" y="156"/>
      <point x="319" y="7"/>
      <point x="238" y="7" type="curve" smooth="yes"/>
      <point x="191" y="7"/>
      <point x="169" y="55"/>
      <point x="169" y="122" type="curve" smooth="yes"/>
      <point x="169" y="181"/>
      <point x="188" y="259"/>
      <point x="225" y="331" type="curve"/>
      <point x="227" y="334"/>
      <point x="233" y="338"/>
      <point x="239" y="335" type="curve" smooth="yes"/>
      <point x="252" y="328"/>
      <point x="270" y="325"/>
      <point x="281" y="325" type="curve" smooth="yes"/>
      <point x="379" y="325"/>
      <point x="436" y="437"/>
      <point x="436" y="503" type="curve" smooth="yes"/>
      <point x="436" y="567"/>
      <point x="399" y="598"/>
      <point x="365" y="598" type="curve" smooth="yes"/>
      <point x="313" y="598"/>
      <point x="241" y="528"/>
      <point x="173" y="438" type="curve"/>
      <point x="183" y="467"/>
      <point x="192" y="488"/>
      <point x="202" y="512" type="curve" smooth="yes"/>
      <point x="206" y="522"/>
      <point x="209" y="533"/>
      <point x="213" y="544" type="curve" smooth="yes"/>
      <point x="222" y="568" type="line"/>
      <point x="262" y="599"/>
      <point x="305" y="626"/>
      <point x="346" y="652" type="curve" smooth="yes"/>
      <point x="426" y="703"/>
      <point x="512" y="760"/>
      <point x="585" y="849" type="curve" smooth="yes"/>
      <point x="611" y="880"/>
      <point x="632" y="923"/>
      <point x="633" y="959" type="curve" smooth="yes"/>
      <point x="635" y="995"/>
      <point x="616" y="1019"/>
      <point x="576" y="1023" type="curve" smooth="yes"/>
      <point x="505" y="1028"/>
      <point x="390" y="970"/>
      <point x="311" y="832" type="curve" smooth="yes"/>
      <point x="283" y="782"/>
      <point x="260" y="712"/>
      <point x="235" y="637" type="curve" smooth="yes"/>
      <point x="213" y="572" type="line"/>
      <point x="138" y="512"/>
      <point x="61" y="429"/>
      <point x="-2" y="284" type="curve"/>
      <point x="6" y="282" type="line"/>
      <point x="66" y="421"/>
      <point x="133" y="495"/>
      <point x="208" y="556" type="curve"/>
      <point x="204" y="543"/>
      <point x="198" y="526"/>
      <point x="193" y="514" type="curve"/>
      <point x="187" y="497"/>
      <point x="178" y="477"/>
      <point x="171" y="460" type="curve" smooth="yes"/>
      <point x="164" y="444"/>
      <point x="157" y="423"/>
      <point x="150" y="407" type="curve"/>
      <point x="93" y="327"/>
      <point x="35" y="226"/>
      <point x="6" y="162" type="curve" smooth="yes"/>
      <point x="0" y="148" type="line" smooth="yes"/>
      <point x="-29" y="81"/>
      <point x="-53" y="28"/>
      <point x="-53" y="6" type="curve" smooth="yes"/>
      <point x="-53" y="-3"/>
      <point x="-50" y="-5"/>
      <point x="-45" y="-5" type="curve" smooth="yes"/>
      <point x="-26" y="-5"/>
      <point x="12" y="53"/>
      <point x="72" y="184" type="curve" smooth="yes"/>
    </contour>
    <contour>
      <point x="333" y="829" type="curve" smooth="yes"/>
      <point x="406" y="957"/>
      <point x="510" y="1020"/>
      <point x="576" y="1015" type="curve" smooth="yes"/>
      <point x="609" y="1012"/>
      <point x="625" y="994"/>
      <point x="623" y="962" type="curve" smooth="yes"/>
      <point x="621" y="927"/>
      <point x="599" y="892"/>
      <point x="573" y="859" type="curve" smooth="yes"/>
      <point x="498" y="769"/>
      <point x="410" y="706"/>
      <point x="331" y="655" type="curve" smooth="yes"/>
      <point x="297" y="633"/>
      <point x="261" y="609"/>
      <point x="229" y="585" type="curve"/>
      <point x="263" y="677"/>
      <point x="296" y="765"/>
    </contour>
    <contour>
      <point x="60" y="206" type="curve"/>
      <point x="53" y="191" type="line" smooth="yes"/>
      <point x="-13" y="49"/>
      <point x="-37" y="4"/>
      <point x="-44" y="4" type="curve" smooth="yes"/>
      <point x="-46" y="4"/>
      <point x="-46" y="5"/>
      <point x="-46" y="7" type="curve" smooth="yes"/>
      <point x="-46" y="23"/>
      <point x="-23" y="75"/>
      <point x="7" y="141" type="curve" smooth="yes"/>
      <point x="14" y="157" type="line" smooth="yes"/>
      <point x="39" y="213"/>
      <point x="83" y="291"/>
      <point x="133" y="366" type="curve"/>
      <point x="110" y="311"/>
      <point x="86" y="253"/>
    </contour>
  </outline>
</glyph>
<glyph name="lacute" format="2">
  <advance width="187"/>
  <unicode hex="013A"/>
  <outline>
    <contour>
      <point x="314" y="973" type="line"/>
      <point x="-57" y="162" type="line" smooth="yes"/>
      <point x="-72" y="128"/>
      <point x="-79" y="94"/>
      <point x="-79" y="68" type="curve" smooth="yes"/>
      <point x="-79" y="26"/>
      <point x="-62" y="-2"/>
      <point x="-35" y="-2" type="curve" smooth="yes"/>
      <point x="35" y="-2"/>
      <point x="131" y="146"/>
      <point x="193" y="282" type="curve"/>
      <point x="185" y="284" type="line"/>
      <point x="126" y="156"/>
      <point x="31" y="6"/>
      <point x="-34" y="6" type="curve" smooth="yes"/>
      <point x="-55" y="6"/>
      <point x="-67" y="27"/>
      <point x="-67" y="60" type="curve" smooth="yes"/>
      <point x="-67" y="84"/>
      <point x="-60" y="117"/>
      <point x="-44" y="151" type="curve" smooth="yes"/>
      <point x="339" y="973" type="line"/>
    </contour>
    <contour>
      <point x="366" y="1068" type="line"/>
      <point x="409" y="1088"/>
      <point x="457" y="1112"/>
      <point x="500" y="1133" type="curve"/>
      <point x="509" y="1138"/>
      <point x="517" y="1144"/>
      <point x="517" y="1153" type="curve" smooth="yes"/>
      <point x="517" y="1161"/>
      <point x="512" y="1166"/>
      <point x="503" y="1166" type="curve" smooth="yes"/>
      <point x="494" y="1166"/>
      <point x="486" y="1162"/>
      <point x="482" y="1159" type="curve" smooth="yes"/>
      <point x="363" y="1074" type="line"/>
    </contour>
  </outline>
</glyph>
<glyph name="lcommaaccent" format="2">
  <advance width="187"/>
  <unicode hex="013C"/>
  <outline>
    <contour>
      <point x="-78" y="-136" type="curve" smooth="yes"/>
      <point x="-94" y="-136"/>
      <point x="-109" y="-150"/>
      <point x="-109" y="-165" type="curve" smooth="yes"/>
      <point x="-109" y="-174"/>
      <point x="-104" y="-183"/>
      <point x="-92" y="-183" type="curve" smooth="yes"/>
      <point x="-85" y="-183" type="line"/>
      <point x="-84" y="-185"/>
      <point x="-86" y="-191"/>
      <point x="-87" y="-193" type="curve"/>
      <point x="-101" y="-213"/>
      <point x="-116" y="-231"/>
      <point x="-136" y="-245" type="curve"/>
      <point x="-134" y="-254" type="line"/>
      <point x="-103" y="-233"/>
      <point x="-60" y="-190"/>
      <point x="-60" y="-159" type="curve" smooth="yes"/>
      <point x="-60" y="-145"/>
      <point x="-69" y="-136"/>
    </contour>
    <contour>
      <point x="314" y="973" type="line"/>
      <point x="-57" y="162" type="line" smooth="yes"/>
      <point x="-72" y="128"/>
      <point x="-79" y="94"/>
      <point x="-79" y="68" type="curve" smooth="yes"/>
      <point x="-79" y="26"/>
      <point x="-62" y="-2"/>
      <point x="-35" y="-2" type="curve" smooth="yes"/>
      <point x="35" y="-2"/>
      <point x="131" y="146"/>
      <point x="193" y="282" type="curve"/>
      <point x="185" y="284" type="line"/>
      <point x="126" y="156"/>
      <point x="31" y="6"/>
      <point x="-34" y="6" type="curve" smooth="yes"/>
      <point x="-55" y="6"/>
      <point x="-67" y="27"/>
      <point x="-67" y="60" type="curve" smooth="yes"/>
      <point x="-67" y="84"/>
      <point x="-60" y="117"/>
      <point x="-44" y="151" type="curve" smooth="yes"/>
      <point x="339" y="973" type="line"/>
    </contour>
  </outline>
</glyph>
<glyph name="Uogonek" format="2">
  <advance width="899"/>
  <unicode hex="0172"/>
  <outline>
    <contour>
      <point x="431" y="3" type="curve"/>
      <point x="421" y="1"/>
      <point x="411" y="0"/>
      <point x="403" y="0" type="curve" smooth="yes"/>
      <point x="338" y="0"/>
      <point x="315" y="45"/>
      <point x="315" y="97" type="curve" smooth="yes"/>
      <point x="315" y="192"/>
      <point x="389" y="340"/>
      <point x="480" y="504" type="curve" smooth="yes"/>
      <point x="550" y="627"/>
      <point x="653" y="738"/>
      <point x="708" y="781" type="curve"/>
      <point x="716" y="788"/>
      <point x="730" y="796"/>
      <point x="739" y="802" type="curve" smooth="yes"/>
      <point x="765" y="818"/>
      <point x="790" y="833"/>
      <point x="790" y="858" type="curve" smooth="yes"/>
      <point x="790" y="935"/>
      <point x="609" y="978"/>
      <point x="470" y="978" type="curve" smooth="yes"/>
      <point x="234" y="978"/>
      <point x="-34" y="836"/>
      <point x="-34" y="595" type="curve" smooth="yes"/>
      <point x="-34" y="496"/>
      <point x="25" y="388"/>
      <point x="152" y="385" type="curve" smooth="yes"/>
      <point x="281" y="385"/>
      <point x="407" y="498"/>
      <point x="407" y="632" type="curve" smooth="yes"/>
      <point x="407" y="717"/>
      <point x="345" y="762"/>
      <point x="276" y="762" type="curve" smooth="yes"/>
      <point x="188" y="762"/>
      <point x="104" y="689"/>
      <point x="104" y="616" type="curve" smooth="yes"/>
      <point x="104" y="598"/>
      <point x="112" y="585"/>
      <point x="123" y="569" type="curve"/>
      <point x="132" y="571" type="line"/>
      <point x="122" y="587"/>
      <point x="118" y="600"/>
      <point x="118" y="613" type="curve" smooth="yes"/>
      <point x="118" y="684"/>
      <point x="190" y="753"/>
      <point x="275" y="753" type="curve" smooth="yes"/>
      <point x="335" y="753"/>
      <point x="389" y="716"/>
      <point x="389" y="633" type="curve" smooth="yes"/>
      <point x="389" y="506"/>
      <point x="274" y="403"/>
      <point x="161" y="393" type="curve"/>
      <point x="36" y="395"/>
      <point x="-19" y="492"/>
      <point x="-19" y="583" type="curve" smooth="yes"/>
      <point x="-19" y="768"/>
      <point x="194" y="957"/>
      <point x="470" y="969" type="curve"/>
      <point x="611" y="967"/>
      <point x="775" y="923"/>
      <point x="775" y="858" type="curve" smooth="yes"/>
      <point x="775" y="838"/>
      <point x="752" y="822"/>
      <point x="730" y="807" type="curve" smooth="yes"/>
      <point x="705" y="790" type="line"/>
      <point x="642" y="740"/>
      <point x="538" y="632"/>
      <point x="459" y="506" type="curve" smooth="yes"/>
      <point x="386" y="389"/>
      <point x="299" y="239"/>
      <point x="299" y="113" type="curve" smooth="yes"/>
      <point x="299" y="49"/>
      <point x="322" y="-10"/>
      <point x="397" y="-10" type="curve" smooth="yes"/>
      <point x="401" y="-10" type="line"/>
      <point x="356" y="-36"/>
      <point x="343" y="-66"/>
      <point x="343" y="-94" type="curve" smooth="yes"/>
      <point x="343" y="-123"/>
      <point x="366" y="-148"/>
      <point x="400" y="-148" type="curve" smooth="yes"/>
      <point x="410" y="-148"/>
      <point x="420" y="-146"/>
      <point x="429" y="-143" type="curve"/>
      <point x="427" y="-134" type="line"/>
      <point x="416" y="-138"/>
      <point x="406" y="-140"/>
      <point x="400" y="-140" type="curve" smooth="yes"/>
      <point x="375" y="-140"/>
      <point x="361" y="-122"/>
      <point x="361" y="-100" type="curve" smooth="yes"/>
      <point x="361" y="-70"/>
      <point x="384" y="-29"/>
      <point x="433" y="-4" type="curve"/>
      <point x="536" y="31"/>
      <point x="657" y="173"/>
      <point x="734" y="289" type="curve"/>
      <point x="715" y="247"/>
      <point x="710" y="233"/>
      <point x="694" y="191" type="curve" smooth="yes"/>
      <point x="664" y="113"/>
      <point x="637" y="22"/>
      <point x="637" y="-55" type="curve" smooth="yes"/>
      <point x="637" y="-140"/>
      <point x="674" y="-214"/>
      <point x="758" y="-214" type="curve" smooth="yes"/>
      <point x="844" y="-214"/>
      <point x="867" y="-153"/>
      <point x="867" y="-124" type="curve" smooth="yes"/>
      <point x="867" y="-113"/>
      <point x="861" y="-86"/>
      <point x="838" y="-77" type="curve"/>
      <point x="836" y="-81" type="line"/>
      <point x="852" y="-91"/>
      <point x="856" y="-107"/>
      <point x="856" y="-117" type="curve" smooth="yes"/>
      <point x="856" y="-142"/>
      <point x="836" y="-206"/>
      <point x="758" y="-206" type="curve" smooth="yes"/>
      <point x="689" y="-206"/>
      <point x="656" y="-139"/>
      <point x="656" y="-61" type="curve" smooth="yes"/>
      <point x="656" y="10"/>
      <point x="681" y="98"/>
      <point x="712" y="176" type="curve" smooth="yes"/>
      <point x="857" y="540"/>
      <point x="1076" y="947"/>
      <point x="1304" y="947" type="curve" smooth="yes"/>
      <point x="1343" y="947"/>
      <point x="1380" y="919"/>
      <point x="1388" y="876" type="curve"/>
      <point x="1392" y="875" type="line"/>
      <point x="1394" y="881"/>
      <point x="1395" y="887"/>
      <point x="1395" y="893" type="curve" smooth="yes"/>
      <point x="1395" y="930"/>
      <point x="1348" y="955"/>
      <point x="1306" y="955" type="curve" smooth="yes"/>
      <point x="1118" y="955"/>
      <point x="908" y="659"/>
      <point x="767" y="363" type="curve"/>
      <point x="693" y="238"/>
      <point x="547" y="33"/>
    </contour>
  </outline>
</glyph>
<glyph name="uogonek" format="2">
  <advance width="374"/>
  <unicode hex="0173"/>
  <outline>
    <contour>
      <point x="308" y="552" type="line"/>
      <point x="185" y="283" type="line"/>
      <point x="183" y="277"/>
      <point x="178" y="268"/>
      <point x="175" y="262" type="curve" smooth="yes"/>
      <point x="115" y="142"/>
      <point x="25" y="6"/>
      <point x="-34" y="6" type="curve" smooth="yes"/>
      <point x="-55" y="6"/>
      <point x="-67" y="27"/>
      <point x="-67" y="60" type="curve" smooth="yes"/>
      <point x="-67" y="83"/>
      <point x="-58" y="119"/>
      <point x="-44" y="151" type="curve" smooth="yes"/>
      <point x="147" y="552" type="line"/>
      <point x="121" y="552" type="line"/>
      <point x="-2" y="283" type="line"/>
      <point x="-57" y="162" type="line" smooth="yes"/>
      <point x="-72" y="128"/>
      <point x="-79" y="94"/>
      <point x="-79" y="68" type="curve" smooth="yes"/>
      <point x="-79" y="26"/>
      <point x="-62" y="-2"/>
      <point x="-35" y="-2" type="curve" smooth="yes"/>
      <point x="13" y="-2"/>
      <point x="73" y="65"/>
      <point x="125" y="152" type="curve"/>
      <point x="115" y="124"/>
      <point x="107" y="90"/>
      <point x="107" y="69" type="curve" smooth="yes"/>
      <point x="107" y="30"/>
      <point x="121" y="2"/>
      <point x="144" y="-2" type="curve"/>
      <point x="94" y="-28"/>
      <point x="78" y="-60"/>
      <point x="78" y="-90" type="curve" smooth="yes"/>
      <point x="78" y="-119"/>
      <point x="101" y="-144"/>
      <point x="135" y="-144" type="curve" smooth="yes"/>
      <point x="145" y="-144"/>
      <point x="155" y="-142"/>
      <point x="164" y="-139" type="curve"/>
      <point x="162" y="-130" type="line"/>
      <point x="151" y="-134"/>
      <point x="141" y="-136"/>
      <point x="135" y="-136" type="curve" smooth="yes"/>
      <point x="110" y="-136"/>
      <point x="96" y="-118"/>
      <point x="96" y="-96" type="curve" smooth="yes"/>
      <point x="96" y="-66"/>
      <point x="121" y="-24"/>
      <point x="170" y="1" type="curve"/>
      <point x="236" y="28"/>
      <point x="324" y="161"/>
      <point x="380" y="282" type="curve"/>
      <point x="372" y="284" type="line"/>
      <point x="313" y="156"/>
      <point x="218" y="6"/>
      <point x="152" y="6" type="curve" smooth="yes"/>
      <point x="131" y="6"/>
      <point x="119" y="27"/>
      <point x="119" y="60" type="curve" smooth="yes"/>
      <point x="119" y="83"/>
      <point x="128" y="119"/>
      <point x="142" y="151" type="curve" smooth="yes"/>
      <point x="334" y="552" type="line"/>
    </contour>
  </outline>
</glyph>
<glyph name="quotedblleft" format="2">
  <advance width="293"/>
  <unicode hex="201C"/>
  <outline>
    <contour>
      <point x="201" y="680" type="curve" smooth="yes"/>
      <point x="217" y="680"/>
      <point x="232" y="694"/>
      <point x="232" y="709" type="curve" smooth="yes"/>
      <point x="232" y="718"/>
      <point x="227" y="727"/>
      <point x="215" y="727" type="curve" smooth="yes"/>
      <point x="208" y="727" type="line"/>
      <point x="207" y="729"/>
      <point x="209" y="735"/>
      <point x="210" y="737" type="curve"/>
      <point x="224" y="757"/>
      <point x="239" y="775"/>
      <point x="259" y="789" type="curve"/>
      <point x="257" y="798" type="line"/>
      <point x="226" y="777"/>
      <point x="183" y="734"/>
      <point x="183" y="703" type="curve" smooth="yes"/>
      <point x="183" y="689"/>
      <point x="192" y="680"/>
    </contour>
    <contour>
      <point x="263" y="680" type="curve" smooth="yes"/>
      <point x="279" y="680"/>
      <point x="294" y="694"/>
      <point x="294" y="709" type="curve" smooth="yes"/>
      <point x="294" y="718"/>
      <point x="289" y="727"/>
      <point x="277" y="727" type="curve" smooth="yes"/>
      <point x="270" y="727" type="line"/>
      <point x="269" y="729"/>
      <point x="271" y="735"/>
      <point x="272" y="737" type="curve"/>
      <point x="286" y="757"/>
      <point x="301" y="775"/>
      <point x="321" y="789" type="curve"/>
      <point x="319" y="798" type="line"/>
      <point x="288" y="777"/>
      <point x="245" y="734"/>
      <point x="245" y="703" type="curve" smooth="yes"/>
      <point x="245" y="689"/>
      <point x="254" y="680"/>
    </contour>
  </outline>
</glyph>
<glyph name="quotedblbase" format="2">
  <advance width="278"/>
  <unicode hex="201E"/>
  <outline>
    <contour>
      <point x="38" y="42" type="curve" smooth="yes"/>
      <point x="22" y="42"/>
      <point x="7" y="28"/>
      <point x="7" y="13" type="curve" smooth="yes"/>
      <point x="7" y="4"/>
      <point x="12" y="-5"/>
      <point x="24" y="-5" type="curve" smooth="yes"/>
      <point x="31" y="-5" type="line"/>
      <point x="32" y="-7"/>
      <point x="30" y="-13"/>
      <point x="29" y="-15" type="curve"/>
      <point x="15" y="-35"/>
      <point x="0" y="-53"/>
      <point x="-20" y="-67" type="curve"/>
      <point x="-18" y="-76" type="line"/>
      <point x="13" y="-55"/>
      <point x="56" y="-12"/>
      <point x="56" y="19" type="curve" smooth="yes"/>
      <point x="56" y="33"/>
      <point x="47" y="42"/>
    </contour>
    <contour>
      <point x="102" y="42" type="curve" smooth="yes"/>
      <point x="86" y="42"/>
      <point x="71" y="28"/>
      <point x="71" y="13" type="curve" smooth="yes"/>
      <point x="71" y="4"/>
      <point x="76" y="-5"/>
      <point x="88" y="-5" type="curve" smooth="yes"/>
      <point x="95" y="-5" type="line"/>
      <point x="96" y="-7"/>
      <point x="94" y="-13"/>
      <point x="93" y="-15" type="curve"/>
      <point x="79" y="-35"/>
      <point x="64" y="-53"/>
      <point x="44" y="-67" type="curve"/>
      <point x="46" y="-76" type="line"/>
      <point x="77" y="-55"/>
      <point x="120" y="-12"/>
      <point x="120" y="19" type="curve" smooth="yes"/>
      <point x="120" y="33"/>
      <point x="111" y="42"/>
    </contour>
  </outline>
</glyph>
<glyph name="trademark" format="2">
  <advance width="596"/>
  <unicode hex="2122"/>
  <outline>
    <contour>
      <point x="501" y="841" type="line"/>
      <point x="493" y="841" type="line"/>
      <point x="466" y="803"/>
      <point x="439" y="762"/>
      <point x="412" y="724" type="curve"/>
      <point x="331" y="841" type="line"/>
      <point x="323" y="841" type="line"/>
      <point x="323" y="681" type="line"/>
      <point x="331" y="681" type="line"/>
      <point x="331" y="828" type="line"/>
      <point x="412" y="709" type="line"/>
      <point x="493" y="828" type="line"/>
      <point x="493" y="681" type="line"/>
      <point x="501" y="681" type="line"/>
    </contour>
    <contour>
      <point x="114" y="833" type="line"/>
      <point x="203" y="833" type="line"/>
      <point x="203" y="681" type="line"/>
      <point x="211" y="681" type="line"/>
      <point x="211" y="833" type="line"/>
      <point x="300" y="833" type="line"/>
      <point x="300" y="841" type="line"/>
      <point x="114" y="841" type="line"/>
    </contour>
  </outline>
</glyph>
<glyph name="fi" format="2">
  <advance width="402"/>
  <unicode hex="FB01"/>
  <outline>
    <contour>
      <point x="16" y="481" type="line"/>
      <point x="89" y="481" type="line"/>
      <point x="28" y="360"/>
      <point x="-27" y="234"/>
      <point x="-74" y="129" type="curve" smooth="yes"/>
      <point x="-166" y="-68"/>
      <point x="-343" y="-452"/>
      <point x="-555" y="-436" type="curve" smooth="yes"/>
      <point x="-599" y="-433"/>
      <point x="-622" y="-402"/>
      <point x="-617" y="-364" type="curve"/>
      <point x="-616" y="-345"/>
      <point x="-605" y="-309"/>
      <point x="-581" y="-306" type="curve"/>
      <point x="-581" y="-302" type="line"/>
      <point x="-584" y="-301" type="line"/>
      <point x="-609" y="-304"/>
      <point x="-630" y="-337"/>
      <point x="-632" y="-357" type="curve" smooth="yes"/>
      <point x="-636" y="-399"/>
      <point x="-609" y="-440"/>
      <point x="-556" y="-444" type="curve" smooth="yes"/>
      <point x="-438" y="-453"/>
      <point x="-336" y="-375"/>
      <point x="-254" y="-262" type="curve" smooth="yes"/>
      <point x="-180" y="-160"/>
      <point x="-118" y="-22"/>
      <point x="-64" y="100" type="curve" smooth="yes"/>
      <point x="-53" y="124" type="line" smooth="yes"/>
      <point x="-8" y="229"/>
      <point x="48" y="361"/>
      <point x="106" y="481" type="curve"/>
      <point x="255" y="481" type="line"/>
      <point x="255" y="489" type="line"/>
      <point x="110" y="489" type="line"/>
      <point x="116" y="503"/>
      <point x="126" y="520"/>
      <point x="133" y="534" type="curve" smooth="yes"/>
      <point x="147" y="562" type="line"/>
      <point x="159" y="560"/>
      <point x="173" y="560"/>
      <point x="186" y="560" type="curve" smooth="yes"/>
      <point x="418" y="560"/>
      <point x="634" y="780"/>
      <point x="634" y="904" type="curve" smooth="yes"/>
      <point x="634" y="953"/>
      <point x="603" y="998"/>
      <point x="550" y="998" type="curve" smooth="yes"/>
      <point x="410" y="998"/>
      <point x="262" y="798"/>
      <point x="137" y="571" type="curve"/>
      <point x="10" y="589"/>
      <point x="-84" y="676"/>
      <point x="-69" y="804" type="curve" smooth="yes"/>
      <point x="-56" y="928"/>
      <point x="40" y="1017"/>
      <point x="144" y="1017" type="curve" smooth="yes"/>
      <point x="212" y="1017"/>
      <point x="267" y="969"/>
      <point x="267" y="910" type="curve" smooth="yes"/>
      <point x="267" y="838"/>
      <point x="210" y="779"/>
      <point x="142" y="779" type="curve" smooth="yes"/>
      <point x="128" y="779"/>
      <point x="91" y="779"/>
      <point x="77" y="804" type="curve"/>
      <point x="67" y="802" type="line"/>
      <point x="87" y="771"/>
      <point x="128" y="771"/>
      <point x="142" y="771" type="curve" smooth="yes"/>
      <point x="217" y="771"/>
      <point x="282" y="836"/>
      <point x="282" y="905" type="curve" smooth="yes"/>
      <point x="282" y="969"/>
      <point x="220" y="1025"/>
      <point x="145" y="1025" type="curve" smooth="yes"/>
      <point x="33" y="1025"/>
      <point x="-71" y="931"/>
      <point x="-87" y="806" type="curve" smooth="yes"/>
      <point x="-99" y="675"/>
      <point x="-1" y="581"/>
      <point x="133" y="563" type="curve"/>
      <point x="121" y="539"/>
      <point x="105" y="512"/>
      <point x="93" y="489" type="curve"/>
      <point x="16" y="489" type="line"/>
    </contour>
    <contour>
      <point x="548" y="990" type="curve" smooth="yes"/>
      <point x="588" y="990"/>
      <point x="618" y="958"/>
      <point x="618" y="903" type="curve" smooth="yes"/>
      <point x="618" y="787"/>
      <point x="418" y="568"/>
      <point x="186" y="568" type="curve" smooth="yes"/>
      <point x="174" y="568"/>
      <point x="163" y="569"/>
      <point x="151" y="570" type="curve"/>
      <point x="271" y="798"/>
      <point x="410" y="990"/>
    </contour>
    <contour>
      <point x="336" y="552" type="line"/>
      <point x="213" y="283" type="line"/>
      <point x="158" y="162" type="line" smooth="yes"/>
      <point x="143" y="128"/>
      <point x="136" y="94"/>
      <point x="136" y="68" type="curve" smooth="yes"/>
      <point x="136" y="26"/>
      <point x="153" y="-2"/>
      <point x="180" y="-2" type="curve" smooth="yes"/>
      <point x="250" y="-2"/>
      <point x="346" y="146"/>
      <point x="408" y="282" type="curve"/>
      <point x="400" y="284" type="line"/>
      <point x="341" y="156"/>
      <point x="246" y="6"/>
      <point x="181" y="6" type="curve" smooth="yes"/>
      <point x="160" y="6"/>
      <point x="148" y="27"/>
      <point x="148" y="60" type="curve" smooth="yes"/>
      <point x="148" y="83"/>
      <point x="157" y="119"/>
      <point x="171" y="151" type="curve" smooth="yes"/>
      <point x="362" y="552" type="line"/>
    </contour>
    <contour>
      <point x="410" y="735" type="line"/>
      <point x="408" y="725"/>
      <point x="413" y="715"/>
      <point x="425" y="715" type="curve" smooth="yes"/>
      <point x="436" y="715"/>
      <point x="448" y="722"/>
      <point x="451" y="734" type="curve"/>
      <point x="456" y="747"/>
      <point x="449" y="756"/>
      <point x="437" y="756" type="curve" smooth="yes"/>
      <point x="425" y="756"/>
      <point x="414" y="748"/>
      <point x="410" y="736" type="curve"/>
    </contour>
  </outline>
</glyph>
<glyph name="f_t" format="2">
  <advance width="402"/>
  <outline>
    <contour>
      <point x="635" y="908" type="curve" smooth="yes"/>
      <point x="635" y="957"/>
      <point x="597" y="998"/>
      <point x="550" y="998" type="curve" smooth="yes"/>
      <point x="419" y="998"/>
      <point x="283" y="825"/>
      <point x="165" y="621" type="curve"/>
      <point x="50" y="646"/>
      <point x="-38" y="732"/>
      <point x="-25" y="852" type="curve" smooth="yes"/>
      <point x="-12" y="976"/>
      <point x="84" y="1065"/>
      <point x="188" y="1065" type="curve" smooth="yes"/>
      <point x="261" y="1065"/>
      <point x="318" y="1010"/>
      <point x="310" y="946" type="curve" smooth="yes"/>
      <point x="303" y="887"/>
      <point x="263" y="827"/>
      <point x="186" y="827" type="curve" smooth="yes"/>
      <point x="172" y="827"/>
      <point x="135" y="827"/>
      <point x="121" y="852" type="curve"/>
      <point x="111" y="850" type="line"/>
      <point x="131" y="819"/>
      <point x="172" y="819"/>
      <point x="186" y="819" type="curve" smooth="yes"/>
      <point x="268" y="819"/>
      <point x="315" y="884"/>
      <point x="323" y="944" type="curve" smooth="yes"/>
      <point x="330" y="1012"/>
      <point x="268" y="1073"/>
      <point x="189" y="1073" type="curve" smooth="yes"/>
      <point x="76" y="1073"/>
      <point x="-29" y="981"/>
      <point x="-43" y="854" type="curve" smooth="yes"/>
      <point x="-57" y="726"/>
      <point x="33" y="637"/>
      <point x="161" y="614" type="curve"/>
      <point x="148" y="591"/>
      <point x="133" y="565"/>
      <point x="121" y="542" type="curve"/>
      <point x="20" y="542" type="line"/>
      <point x="20" y="534" type="line"/>
      <point x="117" y="534" type="line"/>
      <point x="45" y="398"/>
      <point x="-21" y="249"/>
      <point x="-74" y="129" type="curve" smooth="yes"/>
      <point x="-166" y="-68"/>
      <point x="-343" y="-452"/>
      <point x="-555" y="-436" type="curve" smooth="yes"/>
      <point x="-599" y="-433"/>
      <point x="-622" y="-402"/>
      <point x="-617" y="-364" type="curve"/>
      <point x="-616" y="-345"/>
      <point x="-605" y="-309"/>
      <point x="-581" y="-306" type="curve"/>
      <point x="-581" y="-302" type="line"/>
      <point x="-584" y="-301" type="line"/>
      <point x="-609" y="-304"/>
      <point x="-630" y="-337"/>
      <point x="-632" y="-357" type="curve" smooth="yes"/>
      <point x="-636" y="-399"/>
      <point x="-609" y="-440"/>
      <point x="-556" y="-444" type="curve" smooth="yes"/>
      <point x="-438" y="-453"/>
      <point x="-336" y="-375"/>
      <point x="-254" y="-262" type="curve" smooth="yes"/>
      <point x="-180" y="-160"/>
      <point x="-118" y="-22"/>
      <point x="-64" y="100" type="curve" smooth="yes"/>
      <point x="-53" y="124" type="line" smooth="yes"/>
      <point x="-2" y="245"/>
      <point x="63" y="398"/>
      <point x="132" y="534" type="curve"/>
      <point x="329" y="534" type="line"/>
      <point x="158" y="162" type="line" smooth="yes"/>
      <point x="143" y="128"/>
      <point x="135" y="94"/>
      <point x="135" y="68" type="curve" smooth="yes"/>
      <point x="135" y="26"/>
      <point x="153" y="-2"/>
      <point x="180" y="-2" type="curve" smooth="yes"/>
      <point x="250" y="-2"/>
      <point x="346" y="146"/>
      <point x="408" y="282" type="curve"/>
      <point x="400" y="284" type="line"/>
      <point x="341" y="156"/>
      <point x="246" y="6"/>
      <point x="181" y="6" type="curve" smooth="yes"/>
      <point x="160" y="6"/>
      <point x="148" y="27"/>
      <point x="148" y="60" type="curve" smooth="yes"/>
      <point x="148" y="84"/>
      <point x="155" y="117"/>
      <point x="171" y="151" type="curve" smooth="yes"/>
      <point x="229" y="276"/>
      <point x="293" y="409"/>
      <point x="352" y="534" type="curve"/>
      <point x="465" y="534" type="line"/>
      <point x="465" y="542" type="line"/>
      <point x="355" y="542" type="line"/>
      <point x="405" y="646" type="line"/>
      <point x="511" y="696"/>
      <point x="635" y="798"/>
    </contour>
    <contour>
      <point x="421" y="737" type="line"/>
      <point x="380" y="647" type="line"/>
      <point x="332" y="628"/>
      <point x="278" y="616"/>
      <point x="230" y="616" type="curve" smooth="yes"/>
      <point x="212" y="616"/>
      <point x="194" y="616"/>
      <point x="178" y="619" type="curve"/>
      <point x="291" y="824"/>
      <point x="420" y="990"/>
      <point x="548" y="990" type="curve" smooth="yes"/>
      <point x="594" y="990"/>
      <point x="621" y="948"/>
      <point x="618" y="903" type="curve" smooth="yes"/>
      <point x="612" y="805"/>
      <point x="518" y="712"/>
      <point x="411" y="661" type="curve"/>
      <point x="447" y="737" type="line"/>
    </contour>
    <contour>
      <point x="230" y="608" type="curve" smooth="yes"/>
      <point x="278" y="608"/>
      <point x="328" y="617"/>
      <point x="375" y="635" type="curve"/>
      <point x="332" y="542" type="line"/>
      <point x="136" y="542" type="line"/>
      <point x="148" y="566"/>
      <point x="161" y="588"/>
      <point x="174" y="611" type="curve"/>
      <point x="192" y="609"/>
      <point x="210" y="608"/>
    </contour>
    <contour>
      <point x="173" y="612" type="line"/>
      <point x="174" y="611" type="line"/>
      <point x="175" y="613" type="line"/>
    </contour>
  </outline>
</glyph>
<glyph name="init" format="2">
  <advance width="280"/>
  <outline>
    <contour>
      <point x="279" y="285" type="line"/>
      <point x="231" y="181"/>
      <point x="195" y="72"/>
      <point x="195" y="-42" type="curve" smooth="yes"/>
      <point x="195" y="-141"/>
      <point x="227" y="-224"/>
      <point x="303" y="-254" type="curve" smooth="yes"/>
      <point x="319" y="-260"/>
      <point x="341" y="-263"/>
      <point x="362" y="-263" type="curve" smooth="yes"/>
      <point x="419" y="-263"/>
      <point x="482" y="-218"/>
      <point x="482" y="-158" type="curve" smooth="yes"/>
      <point x="482" y="-130"/>
      <point x="469" y="-105"/>
      <point x="443" y="-106" type="curve"/>
      <point x="443" y="-114" type="line"/>
      <point x="463" y="-113"/>
      <point x="474" y="-134"/>
      <point x="474" y="-158" type="curve" smooth="yes"/>
      <point x="474" y="-219"/>
      <point x="408" y="-255"/>
      <point x="362" y="-255" type="curve" smooth="yes"/>
      <point x="244" y="-255"/>
      <point x="205" y="-132"/>
      <point x="205" y="-36" type="curve" smooth="yes"/>
      <point x="205" y="79"/>
      <point x="238" y="179"/>
      <point x="286" y="282" type="curve"/>
    </contour>
  </outline>
</glyph>
<glyph name="o_v" format="2">
  <advance width="804"/>
  <outline>
    <contour>
      <point x="524" y="452" type="curve" smooth="yes"/>
      <point x="517" y="407"/>
      <point x="487" y="366"/>
      <point x="459" y="325" type="curve"/>
      <point x="449" y="312"/>
      <point x="439" y="296"/>
      <point x="430" y="283" type="curve" smooth="yes"/>
      <point x="389" y="225"/>
      <point x="356" y="155"/>
      <point x="347" y="92" type="curve" smooth="yes"/>
      <point x="342" y="42"/>
      <point x="363" y="-2"/>
      <point x="401" y="-2" type="curve" smooth="yes"/>
      <point x="469" y="-2"/>
      <point x="549" y="72"/>
      <point x="617" y="175" type="curve"/>
      <point x="626" y="171"/>
      <point x="638" y="169"/>
      <point x="652" y="169" type="curve" smooth="yes"/>
      <point x="692" y="169"/>
      <point x="767" y="213"/>
      <point x="811" y="282" type="curve"/>
      <point x="803" y="284" type="line"/>
      <point x="763" y="221"/>
      <point x="692" y="177"/>
      <point x="655" y="177" type="curve" smooth="yes"/>
      <point x="642" y="177"/>
      <point x="632" y="179"/>
      <point x="622" y="183" type="curve"/>
      <point x="662" y="243"/>
      <point x="700" y="321"/>
      <point x="728" y="391" type="curve" smooth="yes"/>
      <point x="742" y="424"/>
      <point x="750" y="462"/>
      <point x="750" y="493" type="curve" smooth="yes"/>
      <point x="750" y="526"/>
      <point x="740" y="550"/>
      <point x="718" y="550" type="curve" smooth="yes"/>
      <point x="665" y="550"/>
      <point x="581" y="415"/>
      <point x="569" y="305" type="curve" smooth="yes"/>
      <point x="564" y="258"/>
      <point x="569" y="210"/>
      <point x="600" y="185" type="curve"/>
      <point x="535" y="83"/>
      <point x="461" y="7"/>
      <point x="402" y="7" type="curve" smooth="yes"/>
      <point x="375" y="7"/>
      <point x="354" y="42"/>
      <point x="359" y="86" type="curve"/>
      <point x="370" y="148"/>
      <point x="411" y="216"/>
      <point x="452" y="274" type="curve" smooth="yes"/>
      <point x="489" y="327"/>
      <point x="527" y="399"/>
      <point x="536" y="452" type="curve" smooth="yes"/>
      <point x="538" y="465"/>
      <point x="538" y="474"/>
      <point x="538" y="478" type="curve" smooth="yes"/>
      <point x="538" y="542"/>
      <point x="494" y="567"/>
      <point x="445" y="567" type="curve" smooth="yes"/>
      <point x="403" y="567"/>
      <point x="358" y="545"/>
      <point x="316" y="510" type="curve"/>
      <point x="306" y="545"/>
      <point x="285" y="565"/>
      <point x="254" y="565" type="curve" smooth="yes"/>
      <point x="176" y="565"/>
      <point x="63" y="436"/>
      <point x="-2" y="283" type="curve" smooth="yes"/>
      <point x="-25" y="226"/>
      <point x="-36" y="173"/>
      <point x="-39" y="116" type="curve" smooth="yes"/>
      <point x="-43" y="40"/>
      <point x="-17" y="-12"/>
      <point x="31" y="-14" type="curve" smooth="yes"/>
      <point x="111" y="-14"/>
      <point x="221" y="110"/>
      <point x="287" y="268" type="curve" smooth="yes"/>
      <point x="310" y="326"/>
      <point x="321" y="377"/>
      <point x="324" y="435" type="curve" smooth="yes"/>
      <point x="325" y="458"/>
      <point x="323" y="480"/>
      <point x="319" y="499" type="curve"/>
      <point x="360" y="534"/>
      <point x="405" y="558"/>
      <point x="445" y="558" type="curve" smooth="yes"/>
      <point x="488" y="558"/>
      <point x="527" y="535"/>
      <point x="527" y="480" type="curve" smooth="yes"/>
      <point x="527" y="471"/>
      <point x="526" y="462"/>
    </contour>
    <contour>
      <point x="31" y="-5" type="curve"/>
      <point x="-7" y="-2"/>
      <point x="-25" y="42"/>
      <point x="-21" y="107" type="curve" smooth="yes"/>
      <point x="-18" y="162"/>
      <point x="-6" y="216"/>
      <point x="18" y="274" type="curve" smooth="yes"/>
      <point x="79" y="429"/>
      <point x="187" y="556"/>
      <point x="256" y="556" type="curve" smooth="yes"/>
      <point x="283" y="556"/>
      <point x="298" y="532"/>
      <point x="304" y="498" type="curve"/>
      <point x="231" y="432"/>
      <point x="173" y="327"/>
      <point x="173" y="242" type="curve" smooth="yes"/>
      <point x="173" y="207"/>
      <point x="186" y="174"/>
      <point x="214" y="174" type="curve" smooth="yes"/>
      <point x="218" y="174" type="line"/>
      <point x="158" y="69"/>
      <point x="84" y="-5"/>
    </contour>
    <contour>
      <point x="700" y="378" type="curve" smooth="yes"/>
      <point x="668" y="307"/>
      <point x="637" y="246"/>
      <point x="605" y="193" type="curve"/>
      <point x="580" y="214"/>
      <point x="575" y="261"/>
      <point x="579" y="301" type="curve" smooth="yes"/>
      <point x="594" y="409"/>
      <point x="673" y="541"/>
      <point x="718" y="541" type="curve" smooth="yes"/>
      <point x="731" y="541"/>
      <point x="736" y="529"/>
      <point x="736" y="510" type="curve" smooth="yes"/>
      <point x="736" y="479"/>
      <point x="721" y="428"/>
    </contour>
    <contour>
      <point x="214" y="183" type="curve" smooth="yes"/>
      <point x="193" y="183"/>
      <point x="183" y="213"/>
      <point x="183" y="243" type="curve" smooth="yes"/>
      <point x="183" y="323"/>
      <point x="238" y="422"/>
      <point x="305" y="486" type="curve"/>
      <point x="306" y="473"/>
      <point x="307" y="460"/>
      <point x="306" y="444" type="curve" smooth="yes"/>
      <point x="303" y="389"/>
      <point x="291" y="335"/>
      <point x="267" y="277" type="curve" smooth="yes"/>
      <point x="255" y="246"/>
      <point x="240" y="216"/>
      <point x="225" y="188" type="curve"/>
      <point x="226" y="188" type="line"/>
      <point x="223" y="185"/>
      <point x="218" y="183"/>
    </contour>
  </outline>
</glyph>
<glyph name="o_y" format="2">
  <advance width="830"/>
  <outline>
    <contour>
      <point x="445" y="558" type="curve" smooth="yes"/>
      <point x="488" y="558"/>
      <point x="527" y="534"/>
      <point x="527" y="478" type="curve"/>
      <point x="538" y="476" type="line"/>
      <point x="538" y="542"/>
      <point x="494" y="567"/>
      <point x="445" y="567" type="curve" smooth="yes"/>
      <point x="403" y="567"/>
      <point x="358" y="545"/>
      <point x="316" y="510" type="curve"/>
      <point x="306" y="545"/>
      <point x="285" y="565"/>
      <point x="254" y="565" type="curve" smooth="yes"/>
      <point x="176" y="565"/>
      <point x="63" y="436"/>
      <point x="-2" y="283" type="curve" smooth="yes"/>
      <point x="-25" y="226"/>
      <point x="-36" y="173"/>
      <point x="-39" y="116" type="curve" smooth="yes"/>
      <point x="-43" y="40"/>
      <point x="-17" y="-12"/>
      <point x="31" y="-14" type="curve" smooth="yes"/>
      <point x="111" y="-14"/>
      <point x="221" y="110"/>
      <point x="287" y="268" type="curve" smooth="yes"/>
      <point x="310" y="326"/>
      <point x="321" y="377"/>
      <point x="324" y="435" type="curve" smooth="yes"/>
      <point x="325" y="458"/>
      <point x="323" y="480"/>
      <point x="319" y="499" type="curve"/>
      <point x="360" y="534"/>
      <point x="405" y="558"/>
    </contour>
    <contour>
      <point x="662" y="358" type="line" smooth="yes"/>
      <point x="639" y="304"/>
      <point x="618" y="244"/>
      <point x="598" y="187" type="curve"/>
      <point x="528" y="92"/>
      <point x="446" y="7"/>
      <point x="399" y="7" type="curve" smooth="yes"/>
      <point x="371" y="7"/>
      <point x="350" y="40"/>
      <point x="356" y="86" type="curve" smooth="yes"/>
      <point x="365" y="156"/>
      <point x="408" y="219"/>
      <point x="453" y="284" type="curve" smooth="yes"/>
      <point x="492" y="343"/>
      <point x="531" y="420"/>
      <point x="538" y="477" type="curve"/>
      <point x="527" y="482" type="line"/>
      <point x="521" y="427"/>
      <point x="492" y="385"/>
      <point x="461" y="339" type="curve" smooth="yes"/>
      <point x="451" y="325"/>
      <point x="441" y="307"/>
      <point x="431" y="293" type="curve" smooth="yes"/>
      <point x="389" y="231"/>
      <point x="353" y="158"/>
      <point x="344" y="92" type="curve" smooth="yes"/>
      <point x="339" y="42"/>
      <point x="361" y="-2"/>
      <point x="399" y="-2" type="curve" smooth="yes"/>
      <point x="446" y="-2"/>
      <point x="520" y="69"/>
      <point x="587" y="155" type="curve"/>
      <point x="581" y="138"/>
      <point x="581" y="137"/>
      <point x="576" y="120" type="curve" smooth="yes"/>
      <point x="564" y="84"/>
      <point x="551" y="45"/>
      <point x="539" y="12" type="curve" smooth="yes"/>
      <point x="515" y="-54" type="line"/>
      <point x="460" y="-90"/>
      <point x="408" y="-120"/>
      <point x="362" y="-147" type="curve" smooth="yes"/>
      <point x="284" y="-193"/>
      <point x="190" y="-248"/>
      <point x="136" y="-313" type="curve" smooth="yes"/>
      <point x="111" y="-344"/>
      <point x="95" y="-382"/>
      <point x="94" y="-418" type="curve" smooth="yes"/>
      <point x="91" y="-460"/>
      <point x="113" y="-495"/>
      <point x="166" y="-499" type="curve" smooth="yes"/>
      <point x="237" y="-504"/>
      <point x="351" y="-446"/>
      <point x="430" y="-308" type="curve" smooth="yes"/>
      <point x="458" y="-257"/>
      <point x="482" y="-184"/>
      <point x="508" y="-106" type="curve" smooth="yes"/>
      <point x="524" y="-59" type="line"/>
      <point x="638" y="16"/>
      <point x="760" y="123"/>
      <point x="836" y="282" type="curve"/>
      <point x="828" y="284" type="line"/>
      <point x="756" y="130"/>
      <point x="640" y="31"/>
      <point x="528" y="-45" type="curve"/>
      <point x="532" y="-35" type="line"/>
      <point x="548" y="10" type="line"/>
      <point x="565" y="57" type="line"/>
      <point x="614" y="193" type="line"/>
      <point x="664" y="262"/>
      <point x="712" y="343"/>
      <point x="738" y="400" type="curve" smooth="yes"/>
      <point x="778" y="486"/>
      <point x="811" y="567"/>
      <point x="789" y="567" type="curve" smooth="yes"/>
      <point x="773" y="567"/>
      <point x="731" y="511"/>
      <point x="671" y="378" type="curve" smooth="yes"/>
    </contour>
    <contour>
      <point x="31" y="-5" type="curve"/>
      <point x="-7" y="-2"/>
      <point x="-25" y="42"/>
      <point x="-21" y="107" type="curve" smooth="yes"/>
      <point x="-18" y="162"/>
      <point x="-6" y="216"/>
      <point x="18" y="274" type="curve" smooth="yes"/>
      <point x="79" y="429"/>
      <point x="187" y="556"/>
      <point x="256" y="556" type="curve" smooth="yes"/>
      <point x="283" y="556"/>
      <point x="298" y="532"/>
      <point x="304" y="498" type="curve"/>
      <point x="231" y="432"/>
      <point x="173" y="327"/>
      <point x="173" y="242" type="curve" smooth="yes"/>
      <point x="173" y="207"/>
      <point x="186" y="174"/>
      <point x="214" y="174" type="curve" smooth="yes"/>
      <point x="218" y="174" type="line"/>
      <point x="158" y="69"/>
      <point x="84" y="-5"/>
    </contour>
    <contour>
      <point x="408" y="-305" type="curve" smooth="yes"/>
      <point x="337" y="-433"/>
      <point x="232" y="-496"/>
      <point x="167" y="-491" type="curve" smooth="yes"/>
      <point x="123" y="-488"/>
      <point x="100" y="-463"/>
      <point x="102" y="-425" type="curve" smooth="yes"/>
      <point x="104" y="-390"/>
      <point x="123" y="-356"/>
      <point x="148" y="-323" type="curve" smooth="yes"/>
      <point x="199" y="-259"/>
      <point x="304" y="-192"/>
      <point x="365" y="-155" type="curve" smooth="yes"/>
      <point x="387" y="-142" type="line" smooth="yes"/>
      <point x="425" y="-120"/>
      <point x="467" y="-96"/>
      <point x="510" y="-69" type="curve"/>
      <point x="476" y="-161"/>
      <point x="445" y="-243"/>
    </contour>
    <contour>
      <point x="214" y="183" type="curve" smooth="yes"/>
      <point x="193" y="183"/>
      <point x="183" y="213"/>
      <point x="183" y="243" type="curve" smooth="yes"/>
      <point x="183" y="323"/>
      <point x="238" y="422"/>
      <point x="305" y="486" type="curve"/>
      <point x="306" y="473"/>
      <point x="307" y="460"/>
      <point x="306" y="444" type="curve" smooth="yes"/>
      <point x="303" y="389"/>
      <point x="291" y="335"/>
      <point x="267" y="277" type="curve" smooth="yes"/>
      <point x="255" y="246"/>
      <point x="240" y="216"/>
      <point x="225" y="188" type="curve"/>
      <point x="226" y="188" type="line"/>
      <point x="223" y="185"/>
      <point x="218" y="183"/>
    </contour>
    <contour>
      <point x="789" y="558" type="curve" smooth="yes"/>
      <point x="801" y="558"/>
      <point x="772" y="491"/>
      <point x="730" y="405" type="curve" smooth="yes"/>
      <point x="709" y="357"/>
      <point x="672" y="291"/>
      <point x="628" y="228" type="curve"/>
      <point x="647" y="276"/>
      <point x="661" y="310"/>
      <point x="683" y="356" type="curve" smooth="yes"/>
      <point x="690" y="371" type="line" smooth="yes"/>
      <point x="761" y="518"/>
      <point x="782" y="558"/>
    </contour>
  </outline>
</glyph>
<glyph name="orn.1" format="2">
  <outline>
    <contour>
      <point x="-1" y="285" type="line"/>
      <point x="-52" y="171"/>
      <point x="-74" y="68"/>
      <point x="-74" y="-19" type="curve" smooth="yes"/>
      <point x="-74" y="-89"/>
      <point x="-60" y="-147"/>
      <point x="-36" y="-198" type="curve"/>
      <point x="-79" y="-219" type="line" smooth="yes"/>
      <point x="-227" y="-293"/>
      <point x="-373" y="-366"/>
      <point x="-512" y="-366" type="curve" smooth="yes"/>
      <point x="-726" y="-366"/>
      <point x="-797" y="-244"/>
      <point x="-779" y="-155" type="curve" smooth="yes"/>
      <point x="-771" y="-116"/>
      <point x="-739" y="-68"/>
      <point x="-683" y="-68" type="curve" smooth="yes"/>
      <point x="-676" y="-68" type="line"/>
      <point x="-678" y="-64"/>
      <point x="-680" y="-61"/>
      <point x="-682" y="-61" type="curve" smooth="yes"/>
      <point x="-744" y="-61"/>
      <point x="-783" y="-117"/>
      <point x="-792" y="-160" type="curve" smooth="yes"/>
      <point x="-794" y="-170"/>
      <point x="-795" y="-180"/>
      <point x="-795" y="-190" type="curve" smooth="yes"/>
      <point x="-795" y="-278"/>
      <point x="-722" y="-377"/>
      <point x="-527" y="-377" type="curve" smooth="yes"/>
      <point x="-379" y="-377"/>
      <point x="-216" y="-298"/>
      <point x="-63" y="-223" type="curve" smooth="yes"/>
      <point x="-32" y="-208" type="line"/>
      <point x="34" y="-339"/>
      <point x="166" y="-408"/>
      <point x="300" y="-409" type="curve" smooth="yes"/>
      <point x="499" y="-403"/>
      <point x="596" y="-302"/>
      <point x="596" y="-210" type="curve" smooth="yes"/>
      <point x="596" y="-134"/>
      <point x="518" y="-64"/>
      <point x="387" y="-64" type="curve" smooth="yes"/>
      <point x="248" y="-64"/>
      <point x="110" y="-125"/>
      <point x="-27" y="-193" type="curve"/>
      <point x="-50" y="-144"/>
      <point x="-64" y="-85"/>
      <point x="-64" y="-19" type="curve" smooth="yes"/>
      <point x="-64" y="69"/>
      <point x="-49" y="162"/>
      <point x="6" y="282" type="curve"/>
    </contour>
    <contour>
      <point x="300" y="-400" type="curve" smooth="yes"/>
      <point x="170" y="-399"/>
      <point x="40" y="-332"/>
      <point x="-23" y="-203" type="curve"/>
      <point x="115" y="-136"/>
      <point x="249" y="-76"/>
      <point x="374" y="-76" type="curve" smooth="yes"/>
      <point x="501" y="-76"/>
      <point x="576" y="-142"/>
      <point x="576" y="-215" type="curve" smooth="yes"/>
      <point x="576" y="-302"/>
      <point x="492" y="-396"/>
    </contour>
  </outline>
</glyph>
